<svg width="57" height="56" viewBox="0 0 57 56" fill="none" xmlns="http://www.w3.org/2000/svg">
<path d="M46.0272 28.432V41.2344C46.0272 43.5914 44.1187 45.5 41.7616 45.5H14.4507C12.0937 45.5 10.1851 43.5914 10.1851 41.2344V28.432C10.1851 26.075 12.0937 24.1664 14.4507 24.1664H18.1913C19.3288 24.1664 20.3788 24.9102 20.6522 26.0148C21.478 29.3617 24.5022 31.8445 28.1116 31.8445C31.721 31.8445 34.7343 29.3617 35.5655 26.0148C35.839 24.9102 36.8835 24.1664 38.0265 24.1664H41.1546C44.1187 24.1664 46.0272 26.075 46.0272 28.432Z" fill="#5687FC"/>
<path d="M26.9032 27.0812L20.5103 20.6992C19.4329 19.6219 20.1931 17.7789 21.7134 17.7789H24.6939V11.3641C24.6939 10.4234 25.4595 9.65781 26.4001 9.65781H29.8126C30.7532 9.65781 31.5189 10.4234 31.5189 11.3641V17.7789H34.4993C36.0196 17.7789 36.7798 19.6219 35.7025 20.6992L29.3095 27.0812C28.6423 27.743 27.5704 27.743 26.9032 27.0812Z" fill="#5687FC"/>
</svg>
