<svg width="299" height="114" viewBox="0 0 299 114" fill="none" xmlns="http://www.w3.org/2000/svg">
<g filter="url(#filter0_d_0_1)">
<rect x="22.5" y="22" width="254" height="70" rx="11" fill="white"/>
<rect x="23" y="22.5" width="253" height="69" rx="10.5" stroke="white"/>
</g>
<path d="M122.607 44.7437C121.705 44.747 120.823 45.0284 120.074 45.5522C119.326 46.076 118.743 46.8189 118.4 47.6869C118.057 48.5548 117.969 49.509 118.148 50.4289C118.326 51.3487 118.763 52.1929 119.403 52.8548C120.042 53.5168 120.856 53.9668 121.742 54.1479C122.627 54.3291 123.545 54.2333 124.378 53.8726C125.211 53.512 125.923 52.9027 126.423 52.1217C126.923 51.3407 127.19 50.423 127.189 49.4847C127.198 48.8576 127.085 48.2352 126.857 47.6544C126.63 47.0735 126.293 46.5462 125.865 46.1039C125.438 45.6615 124.929 45.3131 124.369 45.0794C123.809 44.8458 123.21 44.7316 122.607 44.7437ZM122.607 52.3634C122.053 52.4038 121.499 52.2699 121.019 51.9791C120.539 51.6882 120.154 51.2539 119.914 50.7325C119.675 50.2111 119.591 49.6268 119.675 49.0556C119.759 48.4844 120.007 47.9527 120.385 47.5296C120.764 47.1065 121.256 46.8116 121.798 46.6833C122.34 46.5549 122.906 46.5991 123.424 46.8099C123.941 47.0208 124.386 47.3887 124.7 47.8657C125.013 48.3427 125.182 48.9068 125.183 49.4847C125.2 49.8507 125.147 50.2168 125.027 50.5612C124.906 50.9055 124.72 51.2212 124.48 51.4896C124.24 51.758 123.95 51.9736 123.629 52.1237C123.307 52.2737 122.96 52.3552 122.607 52.3634ZM112.607 44.7437C111.704 44.7472 110.823 45.0287 110.074 45.5526C109.325 46.0766 108.743 46.8194 108.4 47.6874C108.057 48.5554 107.97 49.5096 108.148 50.4294C108.327 51.3491 108.763 52.1933 109.403 52.8551C110.043 53.517 110.857 53.9669 111.742 54.148C112.628 54.3291 113.545 54.2332 114.378 53.8725C115.212 53.5119 115.923 52.9025 116.423 52.1216C116.924 51.3406 117.19 50.423 117.189 49.4847C117.197 48.8578 117.084 48.2357 116.856 47.6552C116.628 47.0748 116.291 46.5478 115.863 46.1056C115.436 45.6634 114.927 45.315 114.368 45.0811C113.808 44.8471 113.209 44.7324 112.607 44.7437ZM112.607 52.3634C112.052 52.4038 111.499 52.2699 111.019 51.9791C110.538 51.6882 110.153 51.2539 109.914 50.7325C109.674 50.2111 109.591 49.6268 109.675 49.0556C109.759 48.4844 110.006 47.9527 110.385 47.5296C110.763 47.1065 111.256 46.8116 111.798 46.6833C112.339 46.5549 112.906 46.5991 113.423 46.8099C113.941 47.0208 114.385 47.3887 114.699 47.8657C115.013 48.3427 115.181 48.9068 115.182 49.4847C115.2 49.8507 115.147 50.2168 115.026 50.5612C114.905 50.9055 114.719 51.2212 114.479 51.4896C114.239 51.758 113.95 51.9736 113.628 52.1237C113.306 52.2737 112.959 52.3552 112.607 52.3634ZM100.719 46.206V48.214H105.354C105.288 49.1573 104.917 50.0496 104.303 50.747C103.838 51.2395 103.278 51.625 102.661 51.8786C102.044 52.1323 101.382 52.2483 100.719 52.2192C100.042 52.2192 99.3727 52.0807 98.7478 51.8116C98.1229 51.5425 97.5551 51.148 97.0768 50.6508C96.5986 50.1535 96.2192 49.5632 95.9604 48.9135C95.7015 48.2638 95.5683 47.5675 95.5683 46.8642C95.5683 46.161 95.7015 45.4647 95.9604 44.815C96.2192 44.1653 96.5986 43.575 97.0768 43.0777C97.5551 42.5804 98.1229 42.186 98.7478 41.9169C99.3727 41.6478 100.042 41.5093 100.719 41.5093C102.021 41.4926 103.278 42.0092 104.217 42.9482L105.579 41.5318C104.94 40.8741 104.18 40.3558 103.346 40.0071C102.511 39.6585 101.618 39.4865 100.719 39.5012C99.7771 39.4832 98.8415 39.6605 97.9664 40.0227C97.0914 40.3849 96.2946 40.9248 95.6225 41.6108C94.9504 42.2968 94.4165 43.1151 94.0521 44.0181C93.6877 44.921 93.5 45.8904 93.5 46.8697C93.5 47.8489 93.6877 48.8183 94.0521 49.7212C94.4165 50.6242 94.9504 51.4426 95.6225 52.1286C96.2946 52.8146 97.0914 53.3544 97.9664 53.7166C98.8415 54.0788 99.7771 54.2561 100.719 54.2381C101.637 54.2765 102.552 54.1125 103.404 53.7568C104.257 53.4011 105.027 52.8617 105.665 52.1742C106.793 50.8879 107.394 49.1948 107.34 47.455C107.344 47.0362 107.311 46.6179 107.243 46.2052L100.719 46.206ZM149.337 47.7674C149.064 46.907 148.543 46.155 147.844 45.614C147.145 45.073 146.302 44.7694 145.431 44.7446C144.846 44.7489 144.267 44.8764 143.73 45.1196C143.192 45.3628 142.708 45.7165 142.306 46.1595C141.904 46.6025 141.592 47.1256 141.39 47.6972C141.187 48.2688 141.098 48.8771 141.128 49.4855C141.122 50.502 141.432 51.4933 142.012 52.3121C142.591 53.131 143.409 53.7336 144.344 54.0306C145.279 54.3276 146.282 54.3031 147.202 53.9607C148.123 53.6183 148.913 52.9763 149.454 52.1301L147.9 51.0586C147.666 51.4591 147.336 51.7899 146.943 52.0187C146.55 52.2475 146.107 52.3665 145.656 52.3642C145.191 52.3842 144.731 52.2574 144.337 52.0004C143.942 51.7434 143.632 51.3683 143.446 50.9244L149.551 48.3032L149.337 47.7674ZM143.114 49.3522C143.092 49.0057 143.137 48.6583 143.246 48.3301C143.355 48.002 143.526 47.6997 143.749 47.441C143.972 47.1824 144.242 46.9725 144.544 46.8237C144.845 46.6748 145.172 46.5901 145.506 46.5743C145.852 46.5511 146.197 46.6351 146.497 46.8158C146.797 46.9964 147.039 47.2656 147.191 47.5891L143.114 49.3522ZM138.156 53.9481H140.162V40.0028H138.156V53.9481ZM134.873 45.8044H134.798C134.493 45.4595 134.121 45.1865 133.706 45.0037C133.292 44.8209 132.844 44.7325 132.394 44.7446C131.219 44.8006 130.11 45.3252 129.298 46.2093C128.486 47.0933 128.033 48.2688 128.033 49.4913C128.033 50.7138 128.486 51.8893 129.298 52.7734C130.11 53.6574 131.219 54.182 132.394 54.2381C132.846 54.2516 133.296 54.1617 133.711 53.9747C134.127 53.7877 134.498 53.5081 134.798 53.1557H134.873V53.8365C134.873 55.6553 133.94 56.6252 132.437 56.6252C131.935 56.6143 131.448 56.4483 131.037 56.1484C130.626 55.8485 130.31 55.4283 130.13 54.9413L128.392 55.6887C128.718 56.5244 129.278 57.2392 129.999 57.7404C130.72 58.2416 131.569 58.5062 132.437 58.4999C134.787 58.4999 136.772 57.0609 136.772 53.5573V45.0337H134.873V45.8044ZM132.565 52.3642C131.874 52.3017 131.23 51.972 130.761 51.4401C130.292 50.9083 130.032 50.2129 130.032 49.4913C130.032 48.7697 130.292 48.0744 130.761 47.5425C131.23 47.0107 131.874 46.6809 132.565 46.6184C133.241 46.7032 133.863 47.0423 134.314 47.5716C134.766 48.101 135.015 48.7839 135.015 49.4913C135.015 50.1988 134.766 50.8817 134.314 51.411C133.863 51.9404 133.241 52.2795 132.565 52.3642ZM158.737 40.0028H153.929V53.9481H155.936V48.6598H158.737C159.303 48.6925 159.87 48.6047 160.402 48.402C160.935 48.1992 161.422 47.8857 161.834 47.4805C162.245 47.0754 162.574 46.5872 162.798 46.0457C163.022 45.5042 163.138 44.9208 163.138 44.3313C163.138 43.7418 163.022 43.1584 162.798 42.617C162.574 42.0755 162.245 41.5872 161.834 41.1821C161.422 40.7769 160.935 40.4634 160.402 40.2606C159.87 40.0579 159.303 39.9702 158.737 40.0028ZM158.779 46.7184H155.936V41.9442H158.779C159.088 41.9322 159.396 41.9851 159.685 42.0996C159.973 42.2142 160.237 42.3881 160.459 42.6109C160.682 42.8338 160.859 43.101 160.98 43.3966C161.101 43.6922 161.163 44.0101 161.163 44.3313C161.163 44.6525 161.101 44.9704 160.98 45.266C160.859 45.5616 160.682 45.8288 160.459 46.0517C160.237 46.2745 159.973 46.4484 159.685 46.563C159.396 46.6776 159.088 46.7304 158.779 46.7184ZM171.162 44.7221C170.431 44.6757 169.704 44.8527 169.069 45.2313C168.434 45.6099 167.919 46.1735 167.589 46.8526L169.36 47.6225C169.539 47.2872 169.807 47.013 170.133 46.8329C170.458 46.6529 170.827 46.5746 171.195 46.6076C171.702 46.5578 172.208 46.7186 172.602 47.055C172.996 47.3913 173.246 47.8759 173.297 48.4032V48.5373C172.652 48.1845 171.934 48.0006 171.206 48.0016C169.295 48.0016 167.342 49.0956 167.342 51.1477C167.361 51.5793 167.463 52.0026 167.642 52.3924C167.821 52.7822 168.074 53.1306 168.386 53.4168C168.697 53.703 169.06 53.9212 169.454 54.0584C169.848 54.1956 170.265 54.2491 170.679 54.2156C171.184 54.2438 171.687 54.1315 172.136 53.8902C172.585 53.649 172.963 53.2876 173.233 52.8433H173.297V53.9264H175.229V48.5823C175.229 46.1052 173.447 44.7221 171.162 44.7221ZM170.916 52.3642C170.558 52.4163 170.195 52.3222 169.903 52.1015C169.61 51.8808 169.412 51.5508 169.349 51.1811C169.349 50.0996 170.486 49.6863 171.473 49.6863C172.11 49.6701 172.74 49.8321 173.297 50.1554C173.225 50.761 172.944 51.3187 172.506 51.7249C172.068 52.131 171.503 52.3579 170.916 52.3634V52.3642ZM182.268 45.0237L179.971 51.0702H179.907L177.525 45.0229H175.369L178.942 53.4799L176.903 58.1766H178.994L184.5 45.0229L182.268 45.0237ZM164.241 53.9481H166.236V40.0028H164.241V53.9481Z" fill="#050505"/>
<path d="M74.988 52.9673L80.212 55.7983C80.994 56.2453 81.553 57.1393 81.553 58.0333C81.553 58.9273 81.106 59.8213 80.213 60.2683L56.298 73.4553C55.963 73.6793 55.516 73.7903 55.069 73.7903C54.622 73.7903 54.175 73.6793 53.729 73.4553C53.5622 73.36 53.4083 73.2437 53.271 73.1093L74.988 52.9683V52.9673Z" fill="#F72F4B"/>
<path d="M74.988 52.9673L80.212 55.7983C80.994 56.2453 81.553 57.1393 81.553 58.0333C81.553 58.9273 81.106 59.8213 80.213 60.2683L74.933 63.1793L69.427 58.1243L74.987 52.9673H74.988Z" fill="#FDC601"/>
<path d="M56.298 42.8353L74.988 52.9683L53.338 73.1703C52.8 72.6833 52.5 71.9513 52.5 71.2203V45.0693C52.5 44.1763 52.947 43.2823 53.73 42.8353C54.1226 42.6154 54.565 42.5 55.015 42.5C55.465 42.5 55.9074 42.6154 56.3 42.8353H56.298Z" fill="#02EA75"/>
<path d="M53.42 43.0483L69.461 58.1183L53.328 73.1603C52.796 72.6743 52.5 71.9463 52.5 71.2183V45.0713C52.5 44.3013 52.83 43.5333 53.421 43.0483H53.42Z" fill="#00CEFF"/>
<g clip-path="url(#clip0_0_1)">
<path d="M99.3758 60.9869C99.3387 60.9868 99.3023 60.9974 99.2707 61.0175C99.2391 61.0376 99.2135 61.0665 99.1969 61.1008L97.6453 64.3019C97.4502 64.3306 94.2149 64.8063 94.2149 64.8063C94.1781 64.8117 94.1435 64.8276 94.115 64.8522C94.0865 64.8768 94.0652 64.9091 94.0535 64.9455C94.0418 64.9819 94.0402 65.0209 94.0489 65.0581C94.0576 65.0953 94.0762 65.1293 94.1026 65.1561C94.1026 65.1561 96.4279 67.5157 96.5681 67.6581L95.9619 71.1794C95.9554 71.2171 95.9593 71.2559 95.9731 71.2914C95.9868 71.3269 96.01 71.3577 96.0399 71.3803C96.0698 71.4029 96.1052 71.4164 96.1422 71.4193C96.1792 71.4221 96.2163 71.4143 96.2492 71.3965C96.2492 71.3965 99.1496 69.8359 99.3245 69.7417L102.38 71.4136C102.413 71.4315 102.45 71.4396 102.487 71.4369C102.524 71.4343 102.56 71.421 102.59 71.3986C102.62 71.3761 102.644 71.3455 102.658 71.31C102.672 71.2746 102.676 71.2358 102.67 71.198L102.105 67.6734L104.6 65.1853C104.627 65.1586 104.646 65.1248 104.655 65.0876C104.664 65.0505 104.663 65.0115 104.652 64.975C104.641 64.9386 104.62 64.9062 104.591 64.8814C104.563 64.8566 104.529 64.8405 104.492 64.8349C104.492 64.8349 101.262 64.3411 101.068 64.3114L99.5537 61.1018C99.5374 61.0674 99.5122 61.0385 99.4807 61.0182C99.4493 60.9979 99.413 60.987 99.3758 60.9869Z" fill="#FFBF00"/>
<path d="M99.3965 60.7823C99.3191 60.7781 99.2421 60.7975 99.1751 60.8378C99.1081 60.8782 99.0538 60.9379 99.0191 61.0095L97.5144 64.114L94.1874 64.6032C94.1139 64.614 94.0447 64.6458 93.9877 64.695C93.9306 64.7442 93.888 64.8088 93.8647 64.8816C93.8413 64.9544 93.8381 65.0324 93.8555 65.1068C93.8729 65.1812 93.9101 65.2491 93.9629 65.3026L96.354 67.7292L95.7661 71.1441C95.7531 71.2196 95.7608 71.2972 95.7884 71.3682C95.8159 71.4392 95.8622 71.5007 95.9219 71.5459C95.9817 71.5912 96.0526 71.6182 96.1265 71.6239C96.2005 71.6297 96.2747 71.6139 96.3406 71.5784L99.323 69.9735L102.287 71.595C102.352 71.6309 102.426 71.6471 102.5 71.6418C102.574 71.6365 102.645 71.6099 102.706 71.565C102.766 71.5202 102.813 71.4589 102.841 71.388C102.87 71.3171 102.878 71.2395 102.866 71.164L102.318 67.7457L104.738 65.3327C104.791 65.2794 104.829 65.2118 104.847 65.1375C104.866 65.0632 104.863 64.9852 104.841 64.9123C104.818 64.8394 104.777 64.7746 104.72 64.725C104.664 64.6755 104.595 64.6433 104.522 64.6321L101.201 64.1244L99.7323 61.0115C99.7013 60.9458 99.6538 60.8899 99.5948 60.8496C99.5357 60.8093 99.4673 60.786 99.3965 60.7823V60.7823ZM94.2422 65.0095L97.7762 64.4898L99.3746 61.1921L100.934 64.4986L104.462 65.0379L101.892 67.6011L102.474 71.2322L99.3258 69.5097L96.1577 71.2146L96.7821 67.587L94.2422 65.0095Z" fill="#EB7100"/>
<path opacity="0.16" d="M99.3758 60.9869C99.3387 60.9868 99.3023 60.9974 99.2707 61.0175C99.2391 61.0376 99.2135 61.0665 99.1969 61.1008L97.6453 64.3019C97.4502 64.3306 94.2149 64.8063 94.2149 64.8063C94.1781 64.8117 94.1435 64.8276 94.115 64.8522C94.0865 64.8768 94.0652 64.9091 94.0535 64.9455C94.0418 64.9819 94.0402 65.0209 94.0489 65.0581C94.0576 65.0953 94.0762 65.1293 94.1026 65.1561C94.1026 65.1561 96.4279 67.5157 96.5681 67.6581L95.9619 71.1794C95.9554 71.2171 95.9593 71.2559 95.9731 71.2914C95.9868 71.3269 96.01 71.3577 96.0399 71.3803C96.0698 71.4029 96.1052 71.4164 96.1422 71.4193C96.1792 71.4221 96.2163 71.4143 96.2492 71.3965C96.2492 71.3965 99.1496 69.8359 99.3245 69.7417L102.38 71.4136C102.413 71.4315 102.45 71.4396 102.487 71.4369C102.524 71.4343 102.56 71.421 102.59 71.3986C102.62 71.3761 102.644 71.3455 102.658 71.31C102.672 71.2746 102.676 71.2358 102.67 71.198L102.105 67.6734L104.6 65.1853C104.627 65.1586 104.646 65.1248 104.655 65.0876C104.664 65.0505 104.663 65.0115 104.652 64.975C104.641 64.9386 104.62 64.9062 104.591 64.8814C104.563 64.8566 104.529 64.8405 104.492 64.8349C104.492 64.8349 101.262 64.3411 101.068 64.3114L99.5537 61.1018C99.5374 61.0674 99.5122 61.0385 99.4807 61.0182C99.4493 60.9979 99.413 60.987 99.3758 60.9869Z" fill="white"/>
<path opacity="0.16" d="M99.3965 60.7823C99.3191 60.7781 99.2421 60.7975 99.1751 60.8378C99.1081 60.8782 99.0538 60.9379 99.0191 61.0095L97.5144 64.114L94.1874 64.6032C94.1139 64.614 94.0447 64.6458 93.9877 64.695C93.9306 64.7442 93.888 64.8088 93.8647 64.8816C93.8413 64.9544 93.8381 65.0324 93.8555 65.1068C93.8729 65.1812 93.9101 65.2491 93.9629 65.3026L96.354 67.7292L95.7661 71.1441C95.7531 71.2196 95.7608 71.2972 95.7884 71.3682C95.8159 71.4392 95.8622 71.5007 95.9219 71.5459C95.9817 71.5912 96.0526 71.6182 96.1265 71.6239C96.2005 71.6297 96.2747 71.6139 96.3406 71.5784L99.323 69.9735L102.287 71.595C102.352 71.6309 102.426 71.6471 102.5 71.6418C102.574 71.6365 102.645 71.6099 102.706 71.565C102.766 71.5202 102.813 71.4589 102.841 71.388C102.87 71.3171 102.878 71.2395 102.866 71.164L102.318 67.7457L104.738 65.3327C104.791 65.2794 104.829 65.2118 104.847 65.1375C104.866 65.0632 104.863 64.9852 104.841 64.9123C104.818 64.8394 104.777 64.7746 104.72 64.725C104.664 64.6755 104.595 64.6433 104.522 64.6321L101.201 64.1244L99.7323 61.0115C99.7013 60.9458 99.6538 60.8899 99.5948 60.8496C99.5357 60.8093 99.4673 60.786 99.3965 60.7823V60.7823ZM94.2422 65.0095L97.7762 64.4898L99.3746 61.1921L100.934 64.4986L104.462 65.0379L101.892 67.6011L102.474 71.2322L99.3258 69.5097L96.1577 71.2146L96.7821 67.587L94.2422 65.0095Z" fill="white"/>
<path opacity="0.4" d="M97.7764 64.4898L99.3148 66.2566L99.3747 61.1921L97.7764 64.4898Z" fill="#FFFF8F"/>
<path opacity="0.05" d="M104.462 65.0379L99.3147 66.2566L101.892 67.6011L104.462 65.0379Z" fill="#8F0000"/>
<path opacity="0.12" d="M99.3147 66.2566L102.474 71.2322L99.3258 69.5098L99.3147 66.2566Z" fill="#8F0000"/>
<path opacity="0.25" d="M99.3147 66.2566L96.7821 67.587L96.1577 71.2145L99.3147 66.2566Z" fill="#FFFF8F"/>
<path opacity="0.25" d="M94.2423 65.0095L97.7764 64.4898L99.3148 66.2566L94.2423 65.0095Z" fill="#FFFF8F"/>
<path opacity="0.4" d="M99.3147 66.2566L100.934 64.4986L104.462 65.0379L99.3147 66.2566Z" fill="#FFFF8F"/>
</g>
<g clip-path="url(#clip1_0_1)">
<path d="M114.944 60.9869C114.907 60.9868 114.87 60.9974 114.839 61.0175C114.807 61.0376 114.782 61.0665 114.765 61.1008L113.213 64.3019C113.018 64.3306 109.783 64.8063 109.783 64.8063C109.746 64.8117 109.712 64.8276 109.683 64.8522C109.655 64.8768 109.633 64.9091 109.622 64.9455C109.61 64.9819 109.608 65.0209 109.617 65.0581C109.626 65.0953 109.644 65.1293 109.671 65.1561C109.671 65.1561 111.996 67.5157 112.136 67.6581L111.53 71.1794C111.524 71.2171 111.527 71.2559 111.541 71.2914C111.555 71.3269 111.578 71.3577 111.608 71.3803C111.638 71.4029 111.673 71.4164 111.71 71.4193C111.747 71.4221 111.784 71.4143 111.817 71.3965C111.817 71.3965 114.718 69.8359 114.893 69.7417L117.948 71.4136C117.981 71.4315 118.018 71.4396 118.055 71.4369C118.092 71.4343 118.128 71.421 118.158 71.3986C118.188 71.3761 118.212 71.3455 118.226 71.31C118.24 71.2746 118.244 71.2358 118.238 71.198L117.674 67.6734L120.168 65.1853C120.195 65.1586 120.214 65.1248 120.223 65.0876C120.232 65.0505 120.231 65.0115 120.22 64.975C120.209 64.9386 120.188 64.9062 120.159 64.8814C120.131 64.8566 120.097 64.8405 120.06 64.8349C120.06 64.8349 116.831 64.3411 116.636 64.3114L115.122 61.1018C115.106 61.0674 115.08 61.0385 115.049 61.0182C115.017 60.9979 114.981 60.987 114.944 60.9869Z" fill="#FFBF00"/>
<path d="M114.965 60.7823C114.887 60.7781 114.81 60.7975 114.743 60.8378C114.676 60.8782 114.622 60.9379 114.587 61.0095L113.083 64.114L109.756 64.6032C109.682 64.614 109.613 64.6458 109.556 64.695C109.499 64.7442 109.456 64.8088 109.433 64.8816C109.409 64.9544 109.406 65.0324 109.424 65.1068C109.441 65.1812 109.478 65.2491 109.531 65.3026L111.922 67.7292L111.334 71.1441C111.321 71.2196 111.329 71.2972 111.356 71.3682C111.384 71.4392 111.43 71.5007 111.49 71.5459C111.55 71.5912 111.621 71.6182 111.695 71.6239C111.769 71.6297 111.843 71.6139 111.909 71.5784L114.891 69.9735L117.855 71.595C117.92 71.6309 117.994 71.6471 118.068 71.6418C118.142 71.6365 118.213 71.6099 118.274 71.565C118.334 71.5202 118.381 71.4589 118.409 71.388C118.438 71.3171 118.446 71.2395 118.434 71.164L117.887 67.7457L120.306 65.3327C120.359 65.2794 120.397 65.2118 120.416 65.1375C120.434 65.0632 120.432 64.9852 120.409 64.9123C120.387 64.8394 120.345 64.7746 120.288 64.725C120.232 64.6755 120.163 64.6433 120.09 64.6321L116.769 64.1244L115.3 61.0115C115.269 60.9458 115.222 60.8899 115.163 60.8496C115.104 60.8093 115.035 60.786 114.965 60.7823V60.7823ZM109.81 65.0095L113.344 64.4898L114.943 61.1921L116.502 64.4986L120.03 65.0379L117.46 67.6011L118.042 71.2322L114.894 69.5097L111.726 71.2146L112.35 67.587L109.81 65.0095Z" fill="#EB7100"/>
<path opacity="0.16" d="M114.944 60.9869C114.907 60.9868 114.87 60.9974 114.839 61.0175C114.807 61.0376 114.782 61.0665 114.765 61.1008L113.213 64.3019C113.018 64.3306 109.783 64.8063 109.783 64.8063C109.746 64.8117 109.712 64.8276 109.683 64.8522C109.655 64.8768 109.633 64.9091 109.622 64.9455C109.61 64.9819 109.608 65.0209 109.617 65.0581C109.626 65.0953 109.644 65.1293 109.671 65.1561C109.671 65.1561 111.996 67.5157 112.136 67.6581L111.53 71.1794C111.524 71.2171 111.527 71.2559 111.541 71.2914C111.555 71.3269 111.578 71.3577 111.608 71.3803C111.638 71.4029 111.673 71.4164 111.71 71.4193C111.747 71.4221 111.784 71.4143 111.817 71.3965C111.817 71.3965 114.718 69.8359 114.893 69.7417L117.948 71.4136C117.981 71.4315 118.018 71.4396 118.055 71.4369C118.092 71.4343 118.128 71.421 118.158 71.3986C118.188 71.3761 118.212 71.3455 118.226 71.31C118.24 71.2746 118.244 71.2358 118.238 71.198L117.674 67.6734L120.168 65.1853C120.195 65.1586 120.214 65.1248 120.223 65.0876C120.232 65.0505 120.231 65.0115 120.22 64.975C120.209 64.9386 120.188 64.9062 120.159 64.8814C120.131 64.8566 120.097 64.8405 120.06 64.8349C120.06 64.8349 116.831 64.3411 116.636 64.3114L115.122 61.1018C115.106 61.0674 115.08 61.0385 115.049 61.0182C115.017 60.9979 114.981 60.987 114.944 60.9869Z" fill="white"/>
<path opacity="0.16" d="M114.965 60.7823C114.887 60.7781 114.81 60.7975 114.743 60.8378C114.676 60.8782 114.622 60.9379 114.587 61.0095L113.083 64.114L109.756 64.6032C109.682 64.614 109.613 64.6458 109.556 64.695C109.499 64.7442 109.456 64.8088 109.433 64.8816C109.409 64.9544 109.406 65.0324 109.424 65.1068C109.441 65.1812 109.478 65.2491 109.531 65.3026L111.922 67.7292L111.334 71.1441C111.321 71.2196 111.329 71.2972 111.356 71.3682C111.384 71.4392 111.43 71.5007 111.49 71.5459C111.55 71.5912 111.621 71.6182 111.695 71.6239C111.769 71.6297 111.843 71.6139 111.909 71.5784L114.891 69.9735L117.855 71.595C117.92 71.6309 117.994 71.6471 118.068 71.6418C118.142 71.6365 118.213 71.6099 118.274 71.565C118.334 71.5202 118.381 71.4589 118.409 71.388C118.438 71.3171 118.446 71.2395 118.434 71.164L117.887 67.7457L120.306 65.3327C120.359 65.2794 120.397 65.2118 120.416 65.1375C120.434 65.0632 120.432 64.9852 120.409 64.9123C120.387 64.8394 120.345 64.7746 120.288 64.725C120.232 64.6755 120.163 64.6433 120.09 64.6321L116.769 64.1244L115.3 61.0115C115.269 60.9458 115.222 60.8899 115.163 60.8496C115.104 60.8093 115.035 60.786 114.965 60.7823V60.7823ZM109.81 65.0095L113.344 64.4898L114.943 61.1921L116.502 64.4986L120.03 65.0379L117.46 67.6011L118.042 71.2322L114.894 69.5097L111.726 71.2146L112.35 67.587L109.81 65.0095Z" fill="white"/>
<path opacity="0.4" d="M113.344 64.4898L114.883 66.2566L114.943 61.1921L113.344 64.4898Z" fill="#FFFF8F"/>
<path opacity="0.05" d="M120.03 65.0379L114.883 66.2566L117.46 67.6011L120.03 65.0379Z" fill="#8F0000"/>
<path opacity="0.12" d="M114.883 66.2566L118.042 71.2322L114.894 69.5098L114.883 66.2566Z" fill="#8F0000"/>
<path opacity="0.25" d="M114.883 66.2566L112.35 67.587L111.726 71.2145L114.883 66.2566Z" fill="#FFFF8F"/>
<path opacity="0.25" d="M109.81 65.0095L113.344 64.4898L114.883 66.2566L109.81 65.0095Z" fill="#FFFF8F"/>
<path opacity="0.4" d="M114.883 66.2566L116.502 64.4986L120.03 65.0379L114.883 66.2566Z" fill="#FFFF8F"/>
</g>
<g clip-path="url(#clip2_0_1)">
<path d="M130.512 60.9869C130.475 60.9868 130.439 60.9974 130.407 61.0175C130.375 61.0376 130.35 61.0665 130.333 61.1008L128.782 64.3019C128.586 64.3306 125.351 64.8063 125.351 64.8063C125.314 64.8117 125.28 64.8276 125.251 64.8522C125.223 64.8768 125.201 64.9091 125.19 64.9455C125.178 64.9819 125.176 65.0209 125.185 65.0581C125.194 65.0953 125.212 65.1293 125.239 65.1561C125.239 65.1561 127.564 67.5157 127.704 67.6581L127.098 71.1794C127.092 71.2171 127.096 71.2559 127.109 71.2914C127.123 71.3269 127.146 71.3577 127.176 71.3803C127.206 71.4029 127.241 71.4164 127.278 71.4193C127.315 71.4221 127.352 71.4143 127.385 71.3965C127.385 71.3965 130.286 69.8359 130.461 69.7417L133.517 71.4136C133.549 71.4315 133.586 71.4396 133.623 71.4369C133.66 71.4343 133.696 71.421 133.726 71.3986C133.756 71.3761 133.78 71.3455 133.794 71.31C133.808 71.2746 133.812 71.2358 133.806 71.198L133.242 67.6734L135.736 65.1853C135.763 65.1586 135.782 65.1248 135.791 65.0876C135.8 65.0505 135.799 65.0115 135.788 64.975C135.777 64.9386 135.756 64.9062 135.728 64.8814C135.699 64.8566 135.665 64.8405 135.628 64.8349C135.628 64.8349 132.399 64.3411 132.204 64.3114L130.69 61.1018C130.674 61.0674 130.648 61.0385 130.617 61.0182C130.586 60.9979 130.549 60.987 130.512 60.9869Z" fill="#FFBF00"/>
<path d="M130.533 60.7823C130.455 60.7781 130.378 60.7975 130.311 60.8378C130.244 60.8782 130.19 60.9379 130.155 61.0095L128.651 64.114L125.324 64.6032C125.25 64.614 125.181 64.6458 125.124 64.695C125.067 64.7442 125.024 64.8088 125.001 64.8816C124.978 64.9544 124.974 65.0324 124.992 65.1068C125.009 65.1812 125.046 65.2491 125.099 65.3026L127.49 67.7292L126.902 71.1441C126.889 71.2196 126.897 71.2972 126.925 71.3682C126.952 71.4392 126.998 71.5007 127.058 71.5459C127.118 71.5912 127.189 71.6182 127.263 71.6239C127.337 71.6297 127.411 71.6139 127.477 71.5784L130.459 69.9735L133.423 71.595C133.488 71.6309 133.562 71.6471 133.636 71.6418C133.71 71.6365 133.782 71.6099 133.842 71.565C133.902 71.5202 133.949 71.4589 133.978 71.388C134.006 71.3171 134.015 71.2395 134.002 71.164L133.455 67.7457L135.874 65.3327C135.928 65.2794 135.965 65.2118 135.984 65.1375C136.002 65.0632 136 64.9852 135.977 64.9123C135.955 64.8394 135.913 64.7746 135.856 64.725C135.8 64.6755 135.731 64.6433 135.658 64.6321L132.337 64.1244L130.868 61.0115C130.837 60.9458 130.79 60.8899 130.731 60.8496C130.672 60.8093 130.603 60.786 130.533 60.7823V60.7823ZM125.378 65.0095L128.912 64.4898L130.511 61.1921L132.071 64.4986L135.598 65.0379L133.028 67.6011L133.61 71.2322L130.462 69.5097L127.294 71.2146L127.918 67.587L125.378 65.0095Z" fill="#EB7100"/>
<path opacity="0.16" d="M130.512 60.9869C130.475 60.9868 130.439 60.9974 130.407 61.0175C130.375 61.0376 130.35 61.0665 130.333 61.1008L128.782 64.3019C128.586 64.3306 125.351 64.8063 125.351 64.8063C125.314 64.8117 125.28 64.8276 125.251 64.8522C125.223 64.8768 125.201 64.9091 125.19 64.9455C125.178 64.9819 125.176 65.0209 125.185 65.0581C125.194 65.0953 125.212 65.1293 125.239 65.1561C125.239 65.1561 127.564 67.5157 127.704 67.6581L127.098 71.1794C127.092 71.2171 127.096 71.2559 127.109 71.2914C127.123 71.3269 127.146 71.3577 127.176 71.3803C127.206 71.4029 127.241 71.4164 127.278 71.4193C127.315 71.4221 127.352 71.4143 127.385 71.3965C127.385 71.3965 130.286 69.8359 130.461 69.7417L133.517 71.4136C133.549 71.4315 133.586 71.4396 133.623 71.4369C133.66 71.4343 133.696 71.421 133.726 71.3986C133.756 71.3761 133.78 71.3455 133.794 71.31C133.808 71.2746 133.812 71.2358 133.806 71.198L133.242 67.6734L135.736 65.1853C135.763 65.1586 135.782 65.1248 135.791 65.0876C135.8 65.0505 135.799 65.0115 135.788 64.975C135.777 64.9386 135.756 64.9062 135.728 64.8814C135.699 64.8566 135.665 64.8405 135.628 64.8349C135.628 64.8349 132.399 64.3411 132.204 64.3114L130.69 61.1018C130.674 61.0674 130.648 61.0385 130.617 61.0182C130.586 60.9979 130.549 60.987 130.512 60.9869Z" fill="white"/>
<path opacity="0.16" d="M130.533 60.7823C130.455 60.7781 130.378 60.7975 130.311 60.8378C130.244 60.8782 130.19 60.9379 130.155 61.0095L128.651 64.114L125.324 64.6032C125.25 64.614 125.181 64.6458 125.124 64.695C125.067 64.7442 125.024 64.8088 125.001 64.8816C124.978 64.9544 124.974 65.0324 124.992 65.1068C125.009 65.1812 125.046 65.2491 125.099 65.3026L127.49 67.7292L126.902 71.1441C126.889 71.2196 126.897 71.2972 126.925 71.3682C126.952 71.4392 126.998 71.5007 127.058 71.5459C127.118 71.5912 127.189 71.6182 127.263 71.6239C127.337 71.6297 127.411 71.6139 127.477 71.5784L130.459 69.9735L133.423 71.595C133.488 71.6309 133.562 71.6471 133.636 71.6418C133.71 71.6365 133.782 71.6099 133.842 71.565C133.902 71.5202 133.949 71.4589 133.978 71.388C134.006 71.3171 134.015 71.2395 134.002 71.164L133.455 67.7457L135.874 65.3327C135.928 65.2794 135.965 65.2118 135.984 65.1375C136.002 65.0632 136 64.9852 135.977 64.9123C135.955 64.8394 135.913 64.7746 135.856 64.725C135.8 64.6755 135.731 64.6433 135.658 64.6321L132.337 64.1244L130.868 61.0115C130.837 60.9458 130.79 60.8899 130.731 60.8496C130.672 60.8093 130.603 60.786 130.533 60.7823V60.7823ZM125.378 65.0095L128.912 64.4898L130.511 61.1921L132.071 64.4986L135.598 65.0379L133.028 67.6011L133.61 71.2322L130.462 69.5097L127.294 71.2146L127.918 67.587L125.378 65.0095Z" fill="white"/>
<path opacity="0.4" d="M128.913 64.4898L130.451 66.2566L130.511 61.1921L128.913 64.4898Z" fill="#FFFF8F"/>
<path opacity="0.05" d="M135.598 65.0379L130.451 66.2566L133.028 67.6011L135.598 65.0379Z" fill="#8F0000"/>
<path opacity="0.12" d="M130.451 66.2566L133.61 71.2322L130.462 69.5098L130.451 66.2566Z" fill="#8F0000"/>
<path opacity="0.25" d="M130.451 66.2566L127.918 67.587L127.294 71.2145L130.451 66.2566Z" fill="#FFFF8F"/>
<path opacity="0.25" d="M125.379 65.0095L128.913 64.4898L130.451 66.2566L125.379 65.0095Z" fill="#FFFF8F"/>
<path opacity="0.4" d="M130.451 66.2566L132.071 64.4986L135.598 65.0379L130.451 66.2566Z" fill="#FFFF8F"/>
</g>
<g clip-path="url(#clip3_0_1)">
<path d="M146.08 60.9869C146.043 60.9868 146.007 60.9974 145.975 61.0175C145.943 61.0376 145.918 61.0665 145.901 61.1008L144.35 64.3019C144.155 64.3306 140.919 64.8063 140.919 64.8063C140.882 64.8117 140.848 64.8276 140.819 64.8522C140.791 64.8768 140.77 64.9091 140.758 64.9455C140.746 64.9819 140.745 65.0209 140.753 65.0581C140.762 65.0953 140.781 65.1293 140.807 65.1561C140.807 65.1561 143.132 67.5157 143.272 67.6581L142.666 71.1794C142.66 71.2171 142.664 71.2559 142.677 71.2914C142.691 71.3269 142.714 71.3577 142.744 71.3803C142.774 71.4029 142.81 71.4164 142.847 71.4193C142.884 71.4221 142.921 71.4143 142.954 71.3965C142.954 71.3965 145.854 69.8359 146.029 69.7417L149.085 71.4136C149.117 71.4315 149.154 71.4396 149.191 71.4369C149.228 71.4343 149.264 71.421 149.294 71.3986C149.324 71.3761 149.348 71.3455 149.362 71.31C149.376 71.2746 149.381 71.2358 149.375 71.198L148.81 67.6734L151.305 65.1853C151.331 65.1586 151.35 65.1248 151.359 65.0876C151.368 65.0505 151.367 65.0115 151.356 64.975C151.345 64.9386 151.324 64.9062 151.296 64.8814C151.268 64.8566 151.233 64.8405 151.196 64.8349C151.196 64.8349 147.967 64.3411 147.772 64.3114L146.258 61.1018C146.242 61.0674 146.217 61.0385 146.185 61.0182C146.154 60.9979 146.117 60.987 146.08 60.9869Z" fill="#FFBF00"/>
<path d="M146.101 60.7823C146.023 60.7781 145.946 60.7975 145.879 60.8378C145.812 60.8782 145.758 60.9379 145.723 61.0095L144.219 64.114L140.892 64.6032C140.818 64.614 140.749 64.6458 140.692 64.695C140.635 64.7442 140.592 64.8088 140.569 64.8816C140.546 64.9544 140.542 65.0324 140.56 65.1068C140.577 65.1812 140.614 65.2491 140.667 65.3026L143.058 67.7292L142.47 71.1441C142.457 71.2196 142.465 71.2972 142.493 71.3682C142.52 71.4392 142.567 71.5007 142.626 71.5459C142.686 71.5912 142.757 71.6182 142.831 71.6239C142.905 71.6297 142.979 71.6139 143.045 71.5784L146.027 69.9735L148.991 71.595C149.056 71.6309 149.13 71.6471 149.204 71.6418C149.278 71.6365 149.35 71.6099 149.41 71.565C149.47 71.5202 149.517 71.4589 149.546 71.388C149.574 71.3171 149.583 71.2395 149.571 71.164L149.023 67.7457L151.442 65.3327C151.496 65.2794 151.534 65.2118 151.552 65.1375C151.57 65.0632 151.568 64.9852 151.545 64.9123C151.523 64.8394 151.481 64.7746 151.424 64.725C151.368 64.6755 151.299 64.6433 151.226 64.6321L147.905 64.1244L146.437 61.0115C146.406 60.9458 146.358 60.8899 146.299 60.8496C146.24 60.8093 146.172 60.786 146.101 60.7823V60.7823ZM140.947 65.0095L144.481 64.4898L146.079 61.1921L147.639 64.4986L151.166 65.0379L148.596 67.6011L149.178 71.2322L146.03 69.5097L142.862 71.2146L143.486 67.587L140.947 65.0095Z" fill="#EB7100"/>
<path opacity="0.16" d="M146.08 60.9869C146.043 60.9868 146.007 60.9974 145.975 61.0175C145.943 61.0376 145.918 61.0665 145.901 61.1008L144.35 64.3019C144.155 64.3306 140.919 64.8063 140.919 64.8063C140.882 64.8117 140.848 64.8276 140.819 64.8522C140.791 64.8768 140.77 64.9091 140.758 64.9455C140.746 64.9819 140.745 65.0209 140.753 65.0581C140.762 65.0953 140.781 65.1293 140.807 65.1561C140.807 65.1561 143.132 67.5157 143.272 67.6581L142.666 71.1794C142.66 71.2171 142.664 71.2559 142.677 71.2914C142.691 71.3269 142.714 71.3577 142.744 71.3803C142.774 71.4029 142.81 71.4164 142.847 71.4193C142.884 71.4221 142.921 71.4143 142.954 71.3965C142.954 71.3965 145.854 69.8359 146.029 69.7417L149.085 71.4136C149.117 71.4315 149.154 71.4396 149.191 71.4369C149.228 71.4343 149.264 71.421 149.294 71.3986C149.324 71.3761 149.348 71.3455 149.362 71.31C149.376 71.2746 149.381 71.2358 149.375 71.198L148.81 67.6734L151.305 65.1853C151.331 65.1586 151.35 65.1248 151.359 65.0876C151.368 65.0505 151.367 65.0115 151.356 64.975C151.345 64.9386 151.324 64.9062 151.296 64.8814C151.268 64.8566 151.233 64.8405 151.196 64.8349C151.196 64.8349 147.967 64.3411 147.772 64.3114L146.258 61.1018C146.242 61.0674 146.217 61.0385 146.185 61.0182C146.154 60.9979 146.117 60.987 146.08 60.9869Z" fill="white"/>
<path opacity="0.16" d="M146.101 60.7823C146.023 60.7781 145.946 60.7975 145.879 60.8378C145.812 60.8782 145.758 60.9379 145.723 61.0095L144.219 64.114L140.892 64.6032C140.818 64.614 140.749 64.6458 140.692 64.695C140.635 64.7442 140.592 64.8088 140.569 64.8816C140.546 64.9544 140.542 65.0324 140.56 65.1068C140.577 65.1812 140.614 65.2491 140.667 65.3026L143.058 67.7292L142.47 71.1441C142.457 71.2196 142.465 71.2972 142.493 71.3682C142.52 71.4392 142.567 71.5007 142.626 71.5459C142.686 71.5912 142.757 71.6182 142.831 71.6239C142.905 71.6297 142.979 71.6139 143.045 71.5784L146.027 69.9735L148.991 71.595C149.056 71.6309 149.13 71.6471 149.204 71.6418C149.278 71.6365 149.35 71.6099 149.41 71.565C149.47 71.5202 149.517 71.4589 149.546 71.388C149.574 71.3171 149.583 71.2395 149.571 71.164L149.023 67.7457L151.442 65.3327C151.496 65.2794 151.534 65.2118 151.552 65.1375C151.57 65.0632 151.568 64.9852 151.545 64.9123C151.523 64.8394 151.481 64.7746 151.424 64.725C151.368 64.6755 151.299 64.6433 151.226 64.6321L147.905 64.1244L146.437 61.0115C146.406 60.9458 146.358 60.8899 146.299 60.8496C146.24 60.8093 146.172 60.786 146.101 60.7823V60.7823ZM140.947 65.0095L144.481 64.4898L146.079 61.1921L147.639 64.4986L151.166 65.0379L148.596 67.6011L149.178 71.2322L146.03 69.5097L142.862 71.2146L143.486 67.587L140.947 65.0095Z" fill="white"/>
<path opacity="0.4" d="M144.481 64.4898L146.019 66.2566L146.079 61.1921L144.481 64.4898Z" fill="#FFFF8F"/>
<path opacity="0.05" d="M151.166 65.0379L146.019 66.2566L148.596 67.6011L151.166 65.0379Z" fill="#8F0000"/>
<path opacity="0.12" d="M146.019 66.2566L149.178 71.2322L146.03 69.5098L146.019 66.2566Z" fill="#8F0000"/>
<path opacity="0.25" d="M146.019 66.2566L143.486 67.587L142.862 71.2145L146.019 66.2566Z" fill="#FFFF8F"/>
<path opacity="0.25" d="M140.947 65.0095L144.481 64.4898L146.019 66.2566L140.947 65.0095Z" fill="#FFFF8F"/>
<path opacity="0.4" d="M146.019 66.2566L147.639 64.4986L151.166 65.0379L146.019 66.2566Z" fill="#FFFF8F"/>
</g>
<g clip-path="url(#clip4_0_1)">
<path d="M161.648 60.9869C161.611 60.9868 161.575 60.9974 161.543 61.0175C161.512 61.0376 161.486 61.0665 161.469 61.1008L159.918 64.3019C159.723 64.3306 156.487 64.8063 156.487 64.8063C156.451 64.8117 156.416 64.8276 156.387 64.8522C156.359 64.8768 156.338 64.9091 156.326 64.9455C156.314 64.9819 156.313 65.0209 156.321 65.0581C156.33 65.0953 156.349 65.1293 156.375 65.1561C156.375 65.1561 158.7 67.5157 158.841 67.6581L158.234 71.1794C158.228 71.2171 158.232 71.2559 158.246 71.2914C158.259 71.3269 158.282 71.3577 158.312 71.3803C158.342 71.4029 158.378 71.4164 158.415 71.4193C158.452 71.4221 158.489 71.4143 158.522 71.3965C158.522 71.3965 161.422 69.8359 161.597 69.7417L164.653 71.4136C164.686 71.4315 164.723 71.4396 164.76 71.4369C164.797 71.4343 164.832 71.421 164.862 71.3986C164.893 71.3761 164.916 71.3455 164.93 71.31C164.944 71.2746 164.949 71.2358 164.943 71.198L164.378 67.6734L166.873 65.1853C166.899 65.1586 166.918 65.1248 166.927 65.0876C166.937 65.0505 166.935 65.0115 166.924 64.975C166.913 64.9386 166.892 64.9062 166.864 64.8814C166.836 64.8566 166.801 64.8405 166.765 64.8349C166.765 64.8349 163.535 64.3411 163.34 64.3114L161.826 61.1018C161.81 61.0674 161.785 61.0385 161.753 61.0182C161.722 60.9979 161.685 60.987 161.648 60.9869Z" fill="#FFBF00"/>
<path d="M161.669 60.7823C161.592 60.7781 161.515 60.7975 161.448 60.8378C161.381 60.8782 161.326 60.9379 161.292 61.0095L159.787 64.114L156.46 64.6032C156.386 64.614 156.317 64.6458 156.26 64.695C156.203 64.7442 156.16 64.8088 156.137 64.8816C156.114 64.9544 156.111 65.0324 156.128 65.1068C156.145 65.1812 156.183 65.2491 156.235 65.3026L158.626 67.7292L158.039 71.1441C158.026 71.2196 158.033 71.2972 158.061 71.3682C158.088 71.4392 158.135 71.5007 158.194 71.5459C158.254 71.5912 158.325 71.6182 158.399 71.6239C158.473 71.6297 158.547 71.6139 158.613 71.5784L161.595 69.9735L164.559 71.595C164.625 71.6309 164.698 71.6471 164.773 71.6418C164.847 71.6365 164.918 71.6099 164.978 71.565C165.038 71.5202 165.085 71.4589 165.114 71.388C165.142 71.3171 165.151 71.2395 165.139 71.164L164.591 67.7457L167.01 65.3327C167.064 65.2794 167.102 65.2118 167.12 65.1375C167.138 65.0632 167.136 64.9852 167.113 64.9123C167.091 64.8394 167.049 64.7746 166.993 64.725C166.936 64.6755 166.867 64.6433 166.794 64.6321L163.473 64.1244L162.005 61.0115C161.974 60.9458 161.926 60.8899 161.867 60.8496C161.808 60.8093 161.74 60.786 161.669 60.7823V60.7823ZM156.515 65.0095L160.049 64.4898L161.647 61.1921L163.207 64.4986L166.735 65.0379L164.164 67.6011L164.746 71.2322L161.598 69.5097L158.43 71.2146L159.055 67.587L156.515 65.0095Z" fill="#EB7100"/>
<path opacity="0.16" d="M161.648 60.9869C161.611 60.9868 161.575 60.9974 161.543 61.0175C161.512 61.0376 161.486 61.0665 161.469 61.1008L159.918 64.3019C159.723 64.3306 156.487 64.8063 156.487 64.8063C156.451 64.8117 156.416 64.8276 156.387 64.8522C156.359 64.8768 156.338 64.9091 156.326 64.9455C156.314 64.9819 156.313 65.0209 156.321 65.0581C156.33 65.0953 156.349 65.1293 156.375 65.1561C156.375 65.1561 158.7 67.5157 158.841 67.6581L158.234 71.1794C158.228 71.2171 158.232 71.2559 158.246 71.2914C158.259 71.3269 158.282 71.3577 158.312 71.3803C158.342 71.4029 158.378 71.4164 158.415 71.4193C158.452 71.4221 158.489 71.4143 158.522 71.3965C158.522 71.3965 161.422 69.8359 161.597 69.7417L164.653 71.4136C164.686 71.4315 164.723 71.4396 164.76 71.4369C164.797 71.4343 164.832 71.421 164.862 71.3986C164.893 71.3761 164.916 71.3455 164.93 71.31C164.944 71.2746 164.949 71.2358 164.943 71.198L164.378 67.6734L166.873 65.1853C166.899 65.1586 166.918 65.1248 166.927 65.0876C166.937 65.0505 166.935 65.0115 166.924 64.975C166.913 64.9386 166.892 64.9062 166.864 64.8814C166.836 64.8566 166.801 64.8405 166.765 64.8349C166.765 64.8349 163.535 64.3411 163.34 64.3114L161.826 61.1018C161.81 61.0674 161.785 61.0385 161.753 61.0182C161.722 60.9979 161.685 60.987 161.648 60.9869Z" fill="white"/>
<path opacity="0.16" d="M161.669 60.7823C161.592 60.7781 161.515 60.7975 161.448 60.8378C161.381 60.8782 161.326 60.9379 161.292 61.0095L159.787 64.114L156.46 64.6032C156.386 64.614 156.317 64.6458 156.26 64.695C156.203 64.7442 156.16 64.8088 156.137 64.8816C156.114 64.9544 156.111 65.0324 156.128 65.1068C156.145 65.1812 156.183 65.2491 156.235 65.3026L158.626 67.7292L158.039 71.1441C158.026 71.2196 158.033 71.2972 158.061 71.3682C158.088 71.4392 158.135 71.5007 158.194 71.5459C158.254 71.5912 158.325 71.6182 158.399 71.6239C158.473 71.6297 158.547 71.6139 158.613 71.5784L161.595 69.9735L164.559 71.595C164.625 71.6309 164.698 71.6471 164.773 71.6418C164.847 71.6365 164.918 71.6099 164.978 71.565C165.038 71.5202 165.085 71.4589 165.114 71.388C165.142 71.3171 165.151 71.2395 165.139 71.164L164.591 67.7457L167.01 65.3327C167.064 65.2794 167.102 65.2118 167.12 65.1375C167.138 65.0632 167.136 64.9852 167.113 64.9123C167.091 64.8394 167.049 64.7746 166.993 64.725C166.936 64.6755 166.867 64.6433 166.794 64.6321L163.473 64.1244L162.005 61.0115C161.974 60.9458 161.926 60.8899 161.867 60.8496C161.808 60.8093 161.74 60.786 161.669 60.7823V60.7823ZM156.515 65.0095L160.049 64.4898L161.647 61.1921L163.207 64.4986L166.735 65.0379L164.164 67.6011L164.746 71.2322L161.598 69.5097L158.43 71.2146L159.055 67.587L156.515 65.0095Z" fill="white"/>
<path opacity="0.4" d="M160.049 64.4898L161.587 66.2566L161.647 61.1921L160.049 64.4898Z" fill="#FFFF8F"/>
<path d="M161.587 66.2566L163.772 65L164.746 71.2321L161.598 69.5098L161.587 66.2566Z" fill="white"/>
<path opacity="0.25" d="M161.587 66.2566L159.055 67.587L158.43 71.2145L161.587 66.2566Z" fill="#FFFF8F"/>
<path opacity="0.25" d="M156.515 65.0095L160.049 64.4898L161.587 66.2566L156.515 65.0095Z" fill="#FFFF8F"/>
<path d="M161.587 66.2566L161.587 61.2422L163.207 64.4986L166.735 65.0379L163.772 68L161.587 66.2566Z" fill="white"/>
</g>
<path d="M234.344 41.3045H224.234C223.56 41.3048 222.914 41.5727 222.438 42.0492C221.961 42.5258 221.693 43.172 221.693 43.8459V53.9559C221.693 54.6298 221.961 55.2761 222.438 55.7526C222.914 56.2291 223.56 56.497 224.234 56.4973H234.344C235.018 56.497 235.664 56.2291 236.141 55.7526C236.618 55.2761 236.885 54.6298 236.886 53.9559V43.8459C236.885 43.172 236.618 42.5258 236.141 42.0492C235.664 41.5727 235.018 41.3048 234.344 41.3045ZM234.763 53.3414C234.763 53.6155 234.654 53.8783 234.46 54.0721C234.267 54.2659 234.004 54.3748 233.73 54.3748H224.849C224.575 54.3748 224.312 54.2659 224.118 54.0721C223.924 53.8783 223.815 53.6155 223.815 53.3414V44.4604C223.815 44.1863 223.924 43.9235 224.118 43.7297C224.312 43.5359 224.575 43.427 224.849 43.427H233.73C234.004 43.427 234.267 43.5359 234.46 43.7297C234.654 43.9235 234.763 44.1863 234.763 44.4604V53.3414Z" fill="black"/>
<path d="M228.2 46.7784H230.378C231.067 46.7784 231.412 47.1228 231.412 47.8117V49.9901C231.412 50.679 231.067 51.0234 230.378 51.0234H228.2C227.511 51.0234 227.167 50.679 227.167 49.9901V47.8117C227.167 47.1228 227.511 46.7784 228.2 46.7784Z" fill="black"/>
<path d="M251.883 41.3045H241.773C241.099 41.3048 240.453 41.5727 239.976 42.0492C239.5 42.5258 239.232 43.172 239.231 43.8459V53.9559C239.232 54.6298 239.5 55.2761 239.976 55.7526C240.453 56.2291 241.099 56.497 241.773 56.4973H251.883C252.557 56.497 253.203 56.2291 253.68 55.7526C254.156 55.2761 254.424 54.6298 254.424 53.9559V43.8459C254.424 43.172 254.156 42.5258 253.68 42.0492C253.203 41.5727 252.557 41.3048 251.883 41.3045ZM252.302 53.3414C252.302 53.6155 252.193 53.8783 251.999 54.0721C251.805 54.2659 251.542 54.3748 251.268 54.3748H242.387C242.113 54.3748 241.85 54.2659 241.657 54.0721C241.463 53.8783 241.354 53.6155 241.354 53.3414V44.4604C241.354 44.1863 241.463 43.9235 241.657 43.7297C241.85 43.5359 242.113 43.427 242.387 43.427H251.268C251.542 43.427 251.805 43.5359 251.999 43.7297C252.193 43.9235 252.302 44.1863 252.302 44.4604V53.3414Z" fill="black"/>
<path d="M245.739 46.7784H247.917C248.606 46.7784 248.95 47.1228 248.95 47.8117V49.9901C248.95 50.679 248.606 51.0234 247.917 51.0234H245.739C245.05 51.0234 244.705 50.679 244.705 49.9901V47.8117C244.705 47.1228 245.05 46.7784 245.739 46.7784Z" fill="black"/>
<path d="M234.344 58.8433H224.234C223.56 58.8436 222.914 59.1114 222.438 59.588C221.961 60.0645 221.693 60.7108 221.693 61.3847V71.4946C221.693 72.1686 221.961 72.8148 222.438 73.2914C222.914 73.7679 223.56 74.0358 224.234 74.0361H234.344C235.018 74.0358 235.664 73.7679 236.141 73.2914C236.618 72.8148 236.885 72.1686 236.886 71.4946V61.3847C236.885 60.7108 236.618 60.0645 236.141 59.588C235.664 59.1114 235.018 58.8436 234.344 58.8433ZM234.763 70.8802C234.763 71.1543 234.654 71.4171 234.46 71.6109C234.267 71.8047 234.004 71.9135 233.73 71.9135H224.849C224.575 71.9135 224.312 71.8047 224.118 71.6109C223.924 71.4171 223.815 71.1543 223.815 70.8802V61.9991C223.815 61.8634 223.842 61.729 223.894 61.6037C223.946 61.4783 224.022 61.3644 224.118 61.2684C224.214 61.1725 224.328 61.0964 224.453 61.0444C224.579 60.9925 224.713 60.9658 224.849 60.9658H233.73C234.004 60.9658 234.267 61.0747 234.46 61.2684C234.654 61.4622 234.763 61.7251 234.763 61.9991V70.8802Z" fill="black"/>
<path d="M228.2 64.3171H230.378C231.067 64.3171 231.412 64.6616 231.412 65.3505V67.5288C231.412 68.2177 231.067 68.5622 230.378 68.5622H228.2C227.511 68.5622 227.167 68.2177 227.167 67.5288V65.3505C227.167 64.6616 227.511 64.3171 228.2 64.3171Z" fill="black"/>
<path d="M241.605 59.7369C241.331 59.7369 241.068 59.8458 240.875 60.0396C240.681 60.2334 240.572 60.4962 240.572 60.7703V62.9486C240.572 63.2227 240.681 63.4855 240.875 63.6793C241.068 63.8731 241.331 63.982 241.605 63.982C241.879 63.982 242.142 63.8731 242.336 63.6793C242.53 63.4855 242.639 63.2227 242.639 62.9486V60.7703C242.639 60.4962 242.53 60.2334 242.336 60.0396C242.142 59.8458 241.879 59.7369 241.605 59.7369ZM241.605 64.9874C241.331 64.9874 241.068 65.0963 240.875 65.29C240.681 65.4838 240.572 65.7467 240.572 66.0207V72.3324C240.572 72.6065 240.681 72.8693 240.875 73.0631C241.068 73.2569 241.331 73.3658 241.605 73.3658C241.741 73.3658 241.875 73.339 242.001 73.2871C242.126 73.2352 242.24 73.1591 242.336 73.0631C242.432 72.9672 242.508 72.8532 242.56 72.7279C242.612 72.6025 242.639 72.4681 242.639 72.3324V66.0207C242.639 65.7467 242.53 65.4838 242.336 65.29C242.142 65.0963 241.879 64.9874 241.605 64.9874ZM252.33 59.7369C252.056 59.7369 251.793 59.8458 251.599 60.0396C251.405 60.2334 251.296 60.4962 251.296 60.7703V62.9486C251.296 63.2227 251.405 63.4855 251.599 63.6793C251.793 63.8731 252.056 63.982 252.33 63.982C252.604 63.982 252.867 63.8731 253.06 63.6793C253.254 63.4855 253.363 63.2227 253.363 62.9486V60.7703C253.363 60.4962 253.254 60.2334 253.06 60.0396C252.867 59.8458 252.604 59.7369 252.33 59.7369ZM252.33 64.9874C252.056 64.9874 251.793 65.0963 251.599 65.29C251.405 65.4838 251.296 65.7467 251.296 66.0207V72.3324C251.296 72.4681 251.323 72.6025 251.375 72.7279C251.427 72.8532 251.503 72.9672 251.599 73.0631C251.695 73.1591 251.809 73.2352 251.934 73.2871C252.06 73.339 252.194 73.3658 252.33 73.3658C252.604 73.3658 252.867 73.2569 253.06 73.0631C253.254 72.8693 253.363 72.6065 253.363 72.3324V66.0207C253.363 65.7467 253.254 65.4838 253.06 65.29C252.867 65.0963 252.604 64.9874 252.33 64.9874ZM246.856 59.7369C246.582 59.7369 246.319 59.8458 246.125 60.0396C245.931 60.2334 245.822 60.4962 245.822 60.7703V64.9595C245.823 65.2335 245.931 65.4962 246.125 65.69C246.319 65.8837 246.582 65.9925 246.856 65.9925C247.13 65.9925 247.393 65.8837 247.586 65.69C247.78 65.4962 247.889 65.2335 247.889 64.9595V60.7703C247.889 60.4962 247.78 60.2334 247.586 60.0396C247.393 59.8458 247.13 59.7369 246.856 59.7369ZM246.856 66.9982C246.582 66.9982 246.319 67.1071 246.125 67.3009C245.931 67.4946 245.822 67.7575 245.822 68.0315V72.3324C245.822 72.4681 245.849 72.6025 245.901 72.7279C245.953 72.8532 246.029 72.9672 246.125 73.0631C246.221 73.1591 246.335 73.2352 246.46 73.2871C246.586 73.339 246.72 73.3658 246.856 73.3658C247.13 73.3658 247.393 73.2569 247.586 73.0631C247.78 72.8693 247.889 72.6065 247.889 72.3324V68.0315C247.889 67.7575 247.78 67.4946 247.586 67.3009C247.393 67.1071 247.13 66.9982 246.856 66.9982Z" fill="black"/>
<rect x="202.5" y="50.5" width="1" height="14" fill="black"/>
<defs>
<filter id="filter0_d_0_1" x="0.5" y="0" width="298" height="114" filterUnits="userSpaceOnUse" color-interpolation-filters="sRGB">
<feFlood flood-opacity="0" result="BackgroundImageFix"/>
<feColorMatrix in="SourceAlpha" type="matrix" values="0 0 0 0 0 0 0 0 0 0 0 0 0 0 0 0 0 0 127 0" result="hardAlpha"/>
<feMorphology radius="1" operator="dilate" in="SourceAlpha" result="effect1_dropShadow_0_1"/>
<feOffset/>
<feGaussianBlur stdDeviation="10.5"/>
<feComposite in2="hardAlpha" operator="out"/>
<feColorMatrix type="matrix" values="0 0 0 0 0.851719 0 0 0 0 0.950469 0 0 0 0 0.9875 0 0 0 1 0"/>
<feBlend mode="normal" in2="BackgroundImageFix" result="effect1_dropShadow_0_1"/>
<feBlend mode="normal" in="SourceGraphic" in2="effect1_dropShadow_0_1" result="shape"/>
</filter>
<clipPath id="clip0_0_1">
<rect width="11" height="11" fill="white" transform="translate(94.0835 60.5) rotate(3.04106)"/>
</clipPath>
<clipPath id="clip1_0_1">
<rect width="11" height="11" fill="white" transform="translate(109.652 60.5) rotate(3.04106)"/>
</clipPath>
<clipPath id="clip2_0_1">
<rect width="11" height="11" fill="white" transform="translate(125.22 60.5) rotate(3.04106)"/>
</clipPath>
<clipPath id="clip3_0_1">
<rect width="11" height="11" fill="white" transform="translate(140.788 60.5) rotate(3.04106)"/>
</clipPath>
<clipPath id="clip4_0_1">
<rect width="11" height="11" fill="white" transform="translate(156.356 60.5) rotate(3.04106)"/>
</clipPath>
</defs>
</svg>
