<svg width="299" height="114" viewBox="0 0 299 114" fill="none" xmlns="http://www.w3.org/2000/svg">
<g filter="url(#filter0_d_0_1)">
<rect x="22.5" y="22" width="254" height="70" rx="11" fill="white"/>
<rect x="23" y="22.5" width="253" height="69" rx="10.5" stroke="white"/>
</g>
<g clip-path="url(#clip0_0_1)">
<path d="M71.306 63.554C72.235 64.799 73.299 65.604 74.5 65.969C73.98 67.493 73.152 69.081 72.02 70.733C70.275 73.223 68.553 74.468 66.854 74.468C66.22 74.468 65.28 74.264 64.034 73.856C62.879 73.448 61.871 73.244 61.01 73.244C60.15 73.244 59.198 73.459 58.155 73.888C57.068 74.296 56.173 74.5 55.471 74.5C53.432 74.5 51.427 72.858 49.456 69.574C47.486 66.334 46.5 63.146 46.5 60.013C46.5 57.116 47.247 54.744 48.743 52.898C50.283 51.053 52.186 50.13 54.45 50.13C54.949 50.13 55.504 50.189 56.116 50.307C56.7764 50.442 57.4159 50.6639 58.018 50.967C58.721 51.331 59.298 51.584 59.752 51.723C60.204 51.863 60.556 51.933 60.805 51.933C61.1 51.933 61.552 51.868 62.165 51.739C62.8088 51.5977 63.4272 51.3589 63.999 51.031C64.5478 50.7364 65.1153 50.4782 65.698 50.258C66.1666 50.0874 66.6614 50.0001 67.16 50C68.746 50 70.173 50.408 71.442 51.224C72.122 51.653 72.812 52.286 73.514 53.124C72.472 53.982 71.714 54.733 71.238 55.377C70.354 56.579 69.912 57.887 69.912 59.304C69.912 60.872 70.377 62.288 71.306 63.554V63.554ZM64.476 48.52C63.683 49.228 62.958 49.69 62.301 49.904C62.0159 49.9809 61.7264 50.0404 61.434 50.082C61.083 50.135 60.681 50.184 60.228 50.227C60.251 48.338 60.772 46.707 61.791 45.333C62.811 43.96 64.487 43.015 66.821 42.5C66.866 42.715 66.9 42.865 66.922 42.95V43.305C66.922 44.077 66.73 44.947 66.345 45.913C65.937 46.857 65.314 47.726 64.475 48.52H64.476Z" fill="#0B0A0A"/>
<path d="M88.7398 55.5599L90.0334 52.0071H95.9611L97.2547 55.5599H99.5138L94.204 41.7737H91.8098L86.5 55.5599H88.7398ZM95.3239 50.2694H90.6706L92.9683 44.0328H93.0455L95.3239 50.2694ZM102.719 59.3829V54.0924C103.53 55.2509 104.534 55.8302 105.77 55.8302C107.198 55.8302 108.338 55.3088 109.149 54.2662C109.902 53.3008 110.288 52.0844 110.288 50.6169C110.288 49.0723 109.902 47.8365 109.129 46.8711C108.28 45.8285 107.141 45.3072 105.673 45.3072C104.322 45.3072 103.279 45.7899 102.584 46.7746V45.5775H100.672V59.3829H102.719ZM105.306 54.1697C104.534 54.1697 103.916 53.8607 103.453 53.2622C102.912 52.6057 102.661 51.7368 102.661 50.6749V50.5011C102.661 49.4777 102.873 48.6475 103.298 48.0296C103.781 47.3152 104.476 46.9677 105.364 46.9677C106.368 46.9677 107.102 47.3152 107.585 48.0489C107.971 48.6668 108.183 49.5164 108.183 50.6169C108.183 51.7175 107.952 52.5671 107.527 53.1849C107.044 53.8414 106.31 54.1697 105.306 54.1697V54.1697ZM114.265 59.3829V54.0924C115.076 55.2509 116.08 55.8302 117.316 55.8302C118.745 55.8302 119.884 55.3088 120.695 54.2662C121.448 53.3008 121.834 52.0844 121.834 50.6169C121.834 49.0723 121.448 47.8365 120.676 46.8711C119.826 45.8285 118.687 45.3072 117.219 45.3072C115.868 45.3072 114.825 45.7899 114.13 46.7746V45.5775H112.219V59.3829H114.265ZM116.853 54.1697C116.08 54.1697 115.462 53.8607 114.999 53.2622C114.458 52.6057 114.207 51.7368 114.207 50.6749V50.5011C114.207 49.4777 114.42 48.6475 114.845 48.0296C115.327 47.3152 116.022 46.9677 116.911 46.9677C117.915 46.9677 118.648 47.3152 119.131 48.0489C119.517 48.6668 119.73 49.5164 119.73 50.6169C119.73 51.7175 119.498 52.5671 119.073 53.1849C118.59 53.8414 117.857 54.1697 116.853 54.1697V54.1697ZM135.427 55.8302C137.165 55.8302 138.517 55.4826 139.482 54.7875C140.447 54.0731 140.93 53.1077 140.93 51.872C140.93 50.5976 140.332 49.6129 139.154 48.8985C138.613 48.5703 137.397 48.1262 135.543 47.5469C134.249 47.1607 133.458 46.8711 133.149 46.6973C132.454 46.3305 132.126 45.8478 132.126 45.2299C132.126 44.5348 132.415 44.0328 133.014 43.7239C133.496 43.4536 134.191 43.3184 135.099 43.3184C136.142 43.3184 136.914 43.5115 137.455 43.917C137.995 44.3031 138.343 44.9596 138.536 45.8478H140.621C140.486 44.3417 139.945 43.2412 138.98 42.5268C138.072 41.8317 136.817 41.5034 135.215 41.5034C133.747 41.5034 132.531 41.8317 131.566 42.4881C130.542 43.1832 130.04 44.1293 130.04 45.3458C130.04 46.5429 130.562 47.4697 131.623 48.1069C132.048 48.3386 133.091 48.7054 134.79 49.246C136.315 49.7094 137.223 50.0184 137.532 50.1728C138.401 50.6169 138.845 51.2155 138.845 51.9878C138.845 52.6057 138.536 53.0884 137.918 53.4359C137.3 53.7835 136.47 53.9766 135.427 53.9766C134.269 53.9766 133.419 53.7642 132.859 53.3394C132.241 52.876 131.855 52.0844 131.701 51.0031H129.615C129.731 52.7408 130.349 54.0152 131.488 54.8261C132.434 55.4826 133.747 55.8302 135.427 55.8302V55.8302ZM147.746 55.5599V53.8607H146.433C146.182 53.8607 146.008 53.7835 145.892 53.6676C145.776 53.5325 145.719 53.3394 145.719 53.0691V47.2766H147.997V45.5775H145.719V42.353L143.672 43.2025V45.5775H141.818V47.2766H143.672V53.0691C143.672 53.8607 143.846 54.4593 144.232 54.8841C144.618 55.3282 145.255 55.5599 146.105 55.5599H147.746V55.5599ZM154.234 55.8302C155.74 55.8302 156.956 55.3088 157.883 54.3048C158.771 53.3394 159.215 52.0844 159.215 50.5783C159.215 49.053 158.752 47.7979 157.863 46.8132C156.956 45.8092 155.74 45.3072 154.234 45.3072C152.727 45.3072 151.511 45.8092 150.604 46.8132C149.696 47.7979 149.252 49.053 149.252 50.5783C149.252 52.0844 149.696 53.3394 150.584 54.3048C151.511 55.3088 152.727 55.8302 154.234 55.8302ZM154.234 54.1504C153.287 54.1504 152.554 53.7642 152.032 53.0305C151.569 52.3933 151.357 51.5823 151.357 50.5783C151.357 49.5743 151.569 48.744 152.032 48.1069C152.554 47.3538 153.287 46.987 154.234 46.987C155.18 46.987 155.913 47.3538 156.454 48.1069C156.917 48.744 157.149 49.5743 157.149 50.5783C157.149 51.563 156.917 52.374 156.454 53.0305C155.913 53.7642 155.18 54.1504 154.234 54.1504ZM163.212 55.5599V50.2694C163.212 49.4005 163.463 48.6861 163.984 48.1455C164.467 47.6435 165.027 47.3924 165.645 47.3924C166.108 47.3924 166.591 47.4504 167.093 47.6048V45.5582C166.745 45.3844 166.301 45.3072 165.799 45.3072C165.181 45.3072 164.641 45.4809 164.177 45.8671C163.791 46.1374 163.463 46.5429 163.212 47.0835V45.5775H161.165V55.5599H163.212ZM172.654 55.8302C173.986 55.8302 175.086 55.444 175.955 54.691C176.65 54.0731 177.095 53.2815 177.326 52.3547H175.28C175.009 52.9339 174.72 53.378 174.372 53.6483C173.928 53.9766 173.349 54.1504 172.634 54.1504C171.823 54.1504 171.186 53.88 170.723 53.378C170.259 52.8567 170.008 52.1037 169.931 51.1383H177.5C177.481 49.3619 177.075 47.9717 176.303 46.9677C175.453 45.8478 174.198 45.3072 172.576 45.3072C171.109 45.3072 169.931 45.8092 169.082 46.8325C168.193 47.8365 167.769 49.0723 167.769 50.559C167.769 52.2002 168.232 53.4939 169.159 54.4593C170.008 55.3668 171.186 55.8302 172.654 55.8302V55.8302ZM175.357 49.5936H169.97C170.086 48.744 170.375 48.1069 170.8 47.6628C171.263 47.1994 171.862 46.987 172.634 46.987C174.256 46.987 175.164 47.8558 175.357 49.5936Z" fill="#0B0A0A"/>
<path d="M88.7398 55.5599L90.0334 52.0071H95.9611L97.2547 55.5599H99.5138L94.204 41.7737H91.8098L86.5 55.5599H88.7398ZM95.3239 50.2694H90.6706L92.9683 44.0328H93.0455L95.3239 50.2694ZM102.719 59.3829V54.0924C103.53 55.2509 104.534 55.8302 105.77 55.8302C107.198 55.8302 108.338 55.3088 109.149 54.2662C109.902 53.3008 110.288 52.0844 110.288 50.6169C110.288 49.0723 109.902 47.8365 109.129 46.8711C108.28 45.8285 107.141 45.3072 105.673 45.3072C104.322 45.3072 103.279 45.7899 102.584 46.7746V45.5775H100.672V59.3829H102.719ZM105.306 54.1697C104.534 54.1697 103.916 53.8607 103.453 53.2622C102.912 52.6057 102.661 51.7368 102.661 50.6749V50.5011C102.661 49.4777 102.873 48.6475 103.298 48.0296C103.781 47.3152 104.476 46.9677 105.364 46.9677C106.368 46.9677 107.102 47.3152 107.585 48.0489C107.971 48.6668 108.183 49.5164 108.183 50.6169C108.183 51.7175 107.952 52.5671 107.527 53.1849C107.044 53.8414 106.31 54.1697 105.306 54.1697V54.1697ZM114.265 59.3829V54.0924C115.076 55.2509 116.08 55.8302 117.316 55.8302C118.745 55.8302 119.884 55.3088 120.695 54.2662C121.448 53.3008 121.834 52.0844 121.834 50.6169C121.834 49.0723 121.448 47.8365 120.676 46.8711C119.826 45.8285 118.687 45.3072 117.219 45.3072C115.868 45.3072 114.825 45.7899 114.13 46.7746V45.5775H112.219V59.3829H114.265ZM116.853 54.1697C116.08 54.1697 115.462 53.8607 114.999 53.2622C114.458 52.6057 114.207 51.7368 114.207 50.6749V50.5011C114.207 49.4777 114.42 48.6475 114.845 48.0296C115.327 47.3152 116.022 46.9677 116.911 46.9677C117.915 46.9677 118.648 47.3152 119.131 48.0489C119.517 48.6668 119.73 49.5164 119.73 50.6169C119.73 51.7175 119.498 52.5671 119.073 53.1849C118.59 53.8414 117.857 54.1697 116.853 54.1697V54.1697ZM135.427 55.8302C137.165 55.8302 138.517 55.4826 139.482 54.7875C140.447 54.0731 140.93 53.1077 140.93 51.872C140.93 50.5976 140.332 49.6129 139.154 48.8985C138.613 48.5703 137.397 48.1262 135.543 47.5469C134.249 47.1607 133.458 46.8711 133.149 46.6973C132.454 46.3305 132.126 45.8478 132.126 45.2299C132.126 44.5348 132.415 44.0328 133.014 43.7239C133.496 43.4536 134.191 43.3184 135.099 43.3184C136.142 43.3184 136.914 43.5115 137.455 43.917C137.995 44.3031 138.343 44.9596 138.536 45.8478H140.621C140.486 44.3417 139.945 43.2412 138.98 42.5268C138.072 41.8317 136.817 41.5034 135.215 41.5034C133.747 41.5034 132.531 41.8317 131.566 42.4881C130.542 43.1832 130.04 44.1293 130.04 45.3458C130.04 46.5429 130.562 47.4697 131.623 48.1069C132.048 48.3386 133.091 48.7054 134.79 49.246C136.315 49.7094 137.223 50.0184 137.532 50.1728C138.401 50.6169 138.845 51.2155 138.845 51.9878C138.845 52.6057 138.536 53.0884 137.918 53.4359C137.3 53.7835 136.47 53.9766 135.427 53.9766C134.269 53.9766 133.419 53.7642 132.859 53.3394C132.241 52.876 131.855 52.0844 131.701 51.0031H129.615C129.731 52.7408 130.349 54.0152 131.488 54.8261C132.434 55.4826 133.747 55.8302 135.427 55.8302V55.8302ZM147.746 55.5599V53.8607H146.433C146.182 53.8607 146.008 53.7835 145.892 53.6676C145.776 53.5325 145.719 53.3394 145.719 53.0691V47.2766H147.997V45.5775H145.719V42.353L143.672 43.2025V45.5775H141.818V47.2766H143.672V53.0691C143.672 53.8607 143.846 54.4593 144.232 54.8841C144.618 55.3282 145.255 55.5599 146.105 55.5599H147.746V55.5599ZM154.234 55.8302C155.74 55.8302 156.956 55.3088 157.883 54.3048C158.771 53.3394 159.215 52.0844 159.215 50.5783C159.215 49.053 158.752 47.7979 157.863 46.8132C156.956 45.8092 155.74 45.3072 154.234 45.3072C152.727 45.3072 151.511 45.8092 150.604 46.8132C149.696 47.7979 149.252 49.053 149.252 50.5783C149.252 52.0844 149.696 53.3394 150.584 54.3048C151.511 55.3088 152.727 55.8302 154.234 55.8302ZM154.234 54.1504C153.287 54.1504 152.554 53.7642 152.032 53.0305C151.569 52.3933 151.357 51.5823 151.357 50.5783C151.357 49.5743 151.569 48.744 152.032 48.1069C152.554 47.3538 153.287 46.987 154.234 46.987C155.18 46.987 155.913 47.3538 156.454 48.1069C156.917 48.744 157.149 49.5743 157.149 50.5783C157.149 51.563 156.917 52.374 156.454 53.0305C155.913 53.7642 155.18 54.1504 154.234 54.1504ZM163.212 55.5599V50.2694C163.212 49.4005 163.463 48.6861 163.984 48.1455C164.467 47.6435 165.027 47.3924 165.645 47.3924C166.108 47.3924 166.591 47.4504 167.093 47.6048V45.5582C166.745 45.3844 166.301 45.3072 165.799 45.3072C165.181 45.3072 164.641 45.4809 164.177 45.8671C163.791 46.1374 163.463 46.5429 163.212 47.0835V45.5775H161.165V55.5599H163.212ZM172.654 55.8302C173.986 55.8302 175.086 55.444 175.955 54.691C176.65 54.0731 177.095 53.2815 177.326 52.3547H175.28C175.009 52.9339 174.72 53.378 174.372 53.6483C173.928 53.9766 173.349 54.1504 172.634 54.1504C171.823 54.1504 171.186 53.88 170.723 53.378C170.259 52.8567 170.008 52.1037 169.931 51.1383H177.5C177.481 49.3619 177.075 47.9717 176.303 46.9677C175.453 45.8478 174.198 45.3072 172.576 45.3072C171.109 45.3072 169.931 45.8092 169.082 46.8325C168.193 47.8365 167.769 49.0723 167.769 50.559C167.769 52.2002 168.232 53.4939 169.159 54.4593C170.008 55.3668 171.186 55.8302 172.654 55.8302V55.8302ZM175.357 49.5936H169.97C170.086 48.744 170.375 48.1069 170.8 47.6628C171.263 47.1994 171.862 46.987 172.634 46.987C174.256 46.987 175.164 47.8558 175.357 49.5936Z" fill="#0B0A0A"/>
<g clip-path="url(#clip1_0_1)">
<path d="M91.3759 61.4902C91.3389 61.4901 91.3024 61.5007 91.2708 61.5208C91.2392 61.5409 91.2136 61.5698 91.197 61.6041L89.6454 64.8052C89.4503 64.8339 86.215 65.3096 86.215 65.3096C86.1782 65.315 86.1436 65.3309 86.1151 65.3555C86.0866 65.3801 86.0653 65.4124 86.0536 65.4488C86.0419 65.4852 86.0403 65.5242 86.049 65.5614C86.0577 65.5986 86.0763 65.6326 86.1027 65.6594C86.1027 65.6594 88.428 68.019 88.5682 68.1614L87.9621 71.6827C87.9556 71.7204 87.9594 71.7592 87.9732 71.7947C87.987 71.8302 88.0101 71.861 88.04 71.8836C88.0699 71.9062 88.1053 71.9197 88.1423 71.9226C88.1793 71.9254 88.2164 71.9175 88.2493 71.8998C88.2493 71.8998 91.1497 70.3392 91.3247 70.245L94.3805 71.9169C94.4132 71.9348 94.4502 71.9429 94.4872 71.9402C94.5243 71.9376 94.5599 71.9243 94.59 71.9019C94.6202 71.8794 94.6437 71.8488 94.6579 71.8133C94.6721 71.7779 94.6764 71.7391 94.6703 71.7013L94.1056 68.1767L96.6003 65.6886C96.627 65.6619 96.646 65.6281 96.6551 65.5909C96.6643 65.5538 96.6631 65.5148 96.6519 65.4783C96.6406 65.4419 96.6197 65.4095 96.5915 65.3847C96.5633 65.3599 96.5289 65.3438 96.4922 65.3382C96.4922 65.3382 93.2626 64.8444 93.0679 64.8147L91.5539 61.6051C91.5376 61.5707 91.5123 61.5418 91.4808 61.5215C91.4494 61.5011 91.4131 61.4903 91.3759 61.4902V61.4902Z" fill="#FFBF00"/>
<path d="M91.3966 61.2857C91.3192 61.2816 91.2423 61.3009 91.1752 61.3413C91.1082 61.3816 91.054 61.4413 91.0192 61.5129L89.5145 64.6174L86.1876 65.1066C86.114 65.1174 86.0448 65.1492 85.9878 65.1984C85.9308 65.2476 85.8881 65.3122 85.8648 65.385C85.8414 65.4578 85.8382 65.5358 85.8556 65.6102C85.873 65.6846 85.9102 65.7525 85.9631 65.8061L88.3541 68.2326L87.7662 71.6475C87.7532 71.723 87.761 71.8006 87.7885 71.8716C87.816 71.9426 87.8623 72.0042 87.9221 72.0493C87.9818 72.0946 88.0527 72.1216 88.1267 72.1274C88.2007 72.1331 88.2748 72.1173 88.3407 72.0819L91.3231 70.477L94.2867 72.0984C94.3522 72.1343 94.4261 72.1505 94.5002 72.1452C94.5743 72.1399 94.6455 72.1133 94.7058 72.0684C94.7661 72.0236 94.8131 71.9623 94.8415 71.8914C94.8699 71.8205 94.8785 71.7429 94.8663 71.6674L94.3186 68.2492L96.738 65.8361C96.7914 65.7828 96.8294 65.7152 96.8476 65.6409C96.8658 65.5666 96.8635 65.4886 96.841 65.4157C96.8185 65.3428 96.7767 65.278 96.7203 65.2284C96.6638 65.1789 96.5951 65.1467 96.5217 65.1355L93.2007 64.6278L91.7324 61.5149C91.7014 61.4492 91.6539 61.3933 91.5949 61.353C91.5358 61.3127 91.4674 61.2895 91.3966 61.2857V61.2857ZM86.2423 65.5129L89.7763 64.9932L91.3747 61.6956L92.9344 65.002L96.4622 65.5413L93.8921 68.1046L94.474 71.7356L91.3259 70.0131L88.1578 71.718L88.7822 68.0904L86.2423 65.5129Z" fill="#EB7100"/>
<path opacity="0.16" d="M91.3759 61.4902C91.3389 61.4901 91.3024 61.5007 91.2708 61.5208C91.2392 61.5409 91.2136 61.5698 91.197 61.6041L89.6454 64.8052C89.4503 64.8339 86.215 65.3096 86.215 65.3096C86.1782 65.315 86.1436 65.3309 86.1151 65.3555C86.0866 65.3801 86.0653 65.4124 86.0536 65.4488C86.0419 65.4852 86.0403 65.5242 86.049 65.5614C86.0577 65.5986 86.0763 65.6326 86.1027 65.6594C86.1027 65.6594 88.428 68.019 88.5682 68.1614L87.9621 71.6827C87.9556 71.7204 87.9594 71.7592 87.9732 71.7947C87.987 71.8302 88.0101 71.861 88.04 71.8836C88.0699 71.9062 88.1053 71.9197 88.1423 71.9226C88.1793 71.9254 88.2164 71.9175 88.2493 71.8998C88.2493 71.8998 91.1497 70.3392 91.3247 70.245L94.3805 71.9169C94.4132 71.9348 94.4502 71.9429 94.4872 71.9402C94.5243 71.9376 94.5599 71.9243 94.59 71.9019C94.6202 71.8794 94.6437 71.8488 94.6579 71.8133C94.6721 71.7779 94.6764 71.7391 94.6703 71.7013L94.1056 68.1767L96.6003 65.6886C96.627 65.6619 96.646 65.6281 96.6551 65.5909C96.6643 65.5538 96.6631 65.5148 96.6519 65.4783C96.6406 65.4419 96.6197 65.4095 96.5915 65.3847C96.5633 65.3599 96.5289 65.3438 96.4922 65.3382C96.4922 65.3382 93.2626 64.8444 93.0679 64.8147L91.5539 61.6051C91.5376 61.5707 91.5123 61.5418 91.4808 61.5215C91.4494 61.5011 91.4131 61.4903 91.3759 61.4902V61.4902Z" fill="white"/>
<path opacity="0.16" d="M91.3966 61.2857C91.3192 61.2816 91.2423 61.3009 91.1752 61.3413C91.1082 61.3816 91.054 61.4413 91.0192 61.5129L89.5145 64.6174L86.1876 65.1066C86.114 65.1174 86.0448 65.1492 85.9878 65.1984C85.9308 65.2476 85.8881 65.3122 85.8648 65.385C85.8414 65.4578 85.8382 65.5358 85.8556 65.6102C85.873 65.6846 85.9102 65.7525 85.9631 65.8061L88.3541 68.2326L87.7662 71.6475C87.7532 71.723 87.761 71.8006 87.7885 71.8716C87.816 71.9426 87.8623 72.0042 87.9221 72.0493C87.9818 72.0946 88.0527 72.1216 88.1267 72.1274C88.2007 72.1331 88.2748 72.1173 88.3407 72.0819L91.3231 70.477L94.2867 72.0984C94.3522 72.1343 94.4261 72.1505 94.5002 72.1452C94.5743 72.1399 94.6455 72.1133 94.7058 72.0684C94.7661 72.0236 94.8131 71.9623 94.8415 71.8914C94.8699 71.8205 94.8785 71.7429 94.8663 71.6674L94.3186 68.2492L96.738 65.8361C96.7914 65.7828 96.8294 65.7152 96.8476 65.6409C96.8658 65.5666 96.8635 65.4886 96.841 65.4157C96.8185 65.3428 96.7767 65.278 96.7203 65.2284C96.6638 65.1789 96.5951 65.1467 96.5217 65.1355L93.2007 64.6278L91.7324 61.5149C91.7014 61.4492 91.6539 61.3933 91.5949 61.353C91.5358 61.3127 91.4674 61.2895 91.3966 61.2857V61.2857ZM86.2423 65.5129L89.7763 64.9932L91.3747 61.6956L92.9344 65.002L96.4622 65.5413L93.8921 68.1046L94.474 71.7356L91.3259 70.0131L88.1578 71.718L88.7822 68.0904L86.2423 65.5129Z" fill="white"/>
<path opacity="0.4" d="M89.7764 64.9932L91.3148 66.76L91.3747 61.6955L89.7764 64.9932Z" fill="#FFFF8F"/>
<path opacity="0.05" d="M96.4622 65.5412L91.3149 66.7599L93.8922 68.1044L96.4622 65.5412Z" fill="#8F0000"/>
<path opacity="0.12" d="M91.3148 66.76L94.474 71.7356L91.3259 70.0132L91.3148 66.76Z" fill="#8F0000"/>
<path opacity="0.25" d="M91.3148 66.76L88.7822 68.0904L88.1578 71.718L91.3148 66.76Z" fill="#FFFF8F"/>
<path opacity="0.25" d="M86.2423 65.5128L89.7764 64.9931L91.3148 66.7599L86.2423 65.5128Z" fill="#FFFF8F"/>
<path opacity="0.4" d="M91.3149 66.76L92.9345 65.002L96.4623 65.5413L91.3149 66.76Z" fill="#FFFF8F"/>
</g>
<g clip-path="url(#clip2_0_1)">
<path d="M106.944 61.4902C106.907 61.4901 106.87 61.5007 106.839 61.5208C106.807 61.5409 106.782 61.5698 106.765 61.6041L105.213 64.8052C105.018 64.8339 101.783 65.3096 101.783 65.3096C101.746 65.315 101.712 65.3309 101.683 65.3555C101.655 65.3801 101.633 65.4124 101.622 65.4488C101.61 65.4852 101.608 65.5242 101.617 65.5614C101.626 65.5986 101.644 65.6326 101.671 65.6594C101.671 65.6594 103.996 68.019 104.136 68.1614L103.53 71.6827C103.524 71.7204 103.527 71.7592 103.541 71.7947C103.555 71.8302 103.578 71.861 103.608 71.8836C103.638 71.9062 103.673 71.9197 103.71 71.9226C103.747 71.9254 103.784 71.9175 103.817 71.8998C103.817 71.8998 106.718 70.3392 106.893 70.245L109.948 71.9169C109.981 71.9348 110.018 71.9429 110.055 71.9402C110.092 71.9376 110.128 71.9243 110.158 71.9019C110.188 71.8794 110.212 71.8488 110.226 71.8133C110.24 71.7779 110.244 71.7391 110.238 71.7013L109.674 68.1767L112.168 65.6886C112.195 65.6619 112.214 65.6281 112.223 65.5909C112.232 65.5538 112.231 65.5148 112.22 65.4783C112.209 65.4419 112.188 65.4095 112.159 65.3847C112.131 65.3599 112.097 65.3438 112.06 65.3382C112.06 65.3382 108.831 64.8444 108.636 64.8147L107.122 61.6051C107.106 61.5707 107.08 61.5418 107.049 61.5215C107.017 61.5011 106.981 61.4903 106.944 61.4902V61.4902Z" fill="#FFBF00"/>
<path d="M106.965 61.2857C106.887 61.2816 106.81 61.3009 106.743 61.3413C106.676 61.3816 106.622 61.4413 106.587 61.5129L105.083 64.6174L101.756 65.1066C101.682 65.1174 101.613 65.1492 101.556 65.1984C101.499 65.2476 101.456 65.3122 101.433 65.385C101.409 65.4578 101.406 65.5358 101.424 65.6102C101.441 65.6846 101.478 65.7525 101.531 65.8061L103.922 68.2326L103.334 71.6475C103.321 71.723 103.329 71.8006 103.356 71.8716C103.384 71.9426 103.43 72.0042 103.49 72.0493C103.55 72.0946 103.621 72.1216 103.695 72.1274C103.769 72.1331 103.843 72.1173 103.909 72.0819L106.891 70.477L109.855 72.0984C109.92 72.1343 109.994 72.1505 110.068 72.1452C110.142 72.1399 110.213 72.1133 110.274 72.0684C110.334 72.0236 110.381 71.9623 110.409 71.8914C110.438 71.8205 110.446 71.7429 110.434 71.6674L109.887 68.2492L112.306 65.8361C112.359 65.7828 112.397 65.7152 112.416 65.6409C112.434 65.5666 112.432 65.4886 112.409 65.4157C112.387 65.3428 112.345 65.278 112.288 65.2284C112.232 65.1789 112.163 65.1467 112.09 65.1355L108.769 64.6278L107.3 61.5149C107.269 61.4492 107.222 61.3933 107.163 61.353C107.104 61.3127 107.035 61.2895 106.965 61.2857V61.2857ZM101.81 65.5129L105.344 64.9932L106.943 61.6956L108.502 65.002L112.03 65.5413L109.46 68.1046L110.042 71.7356L106.894 70.0131L103.726 71.718L104.35 68.0904L101.81 65.5129Z" fill="#EB7100"/>
<path opacity="0.16" d="M106.944 61.4902C106.907 61.4901 106.87 61.5007 106.839 61.5208C106.807 61.5409 106.782 61.5698 106.765 61.6041L105.213 64.8052C105.018 64.8339 101.783 65.3096 101.783 65.3096C101.746 65.315 101.712 65.3309 101.683 65.3555C101.655 65.3801 101.633 65.4124 101.622 65.4488C101.61 65.4852 101.608 65.5242 101.617 65.5614C101.626 65.5986 101.644 65.6326 101.671 65.6594C101.671 65.6594 103.996 68.019 104.136 68.1614L103.53 71.6827C103.524 71.7204 103.527 71.7592 103.541 71.7947C103.555 71.8302 103.578 71.861 103.608 71.8836C103.638 71.9062 103.673 71.9197 103.71 71.9226C103.747 71.9254 103.784 71.9175 103.817 71.8998C103.817 71.8998 106.718 70.3392 106.893 70.245L109.948 71.9169C109.981 71.9348 110.018 71.9429 110.055 71.9402C110.092 71.9376 110.128 71.9243 110.158 71.9019C110.188 71.8794 110.212 71.8488 110.226 71.8133C110.24 71.7779 110.244 71.7391 110.238 71.7013L109.674 68.1767L112.168 65.6886C112.195 65.6619 112.214 65.6281 112.223 65.5909C112.232 65.5538 112.231 65.5148 112.22 65.4783C112.209 65.4419 112.188 65.4095 112.159 65.3847C112.131 65.3599 112.097 65.3438 112.06 65.3382C112.06 65.3382 108.831 64.8444 108.636 64.8147L107.122 61.6051C107.106 61.5707 107.08 61.5418 107.049 61.5215C107.017 61.5011 106.981 61.4903 106.944 61.4902V61.4902Z" fill="white"/>
<path opacity="0.16" d="M106.965 61.2857C106.887 61.2816 106.81 61.3009 106.743 61.3413C106.676 61.3816 106.622 61.4413 106.587 61.5129L105.083 64.6174L101.756 65.1066C101.682 65.1174 101.613 65.1492 101.556 65.1984C101.499 65.2476 101.456 65.3122 101.433 65.385C101.409 65.4578 101.406 65.5358 101.424 65.6102C101.441 65.6846 101.478 65.7525 101.531 65.8061L103.922 68.2326L103.334 71.6475C103.321 71.723 103.329 71.8006 103.356 71.8716C103.384 71.9426 103.43 72.0042 103.49 72.0493C103.55 72.0946 103.621 72.1216 103.695 72.1274C103.769 72.1331 103.843 72.1173 103.909 72.0819L106.891 70.477L109.855 72.0984C109.92 72.1343 109.994 72.1505 110.068 72.1452C110.142 72.1399 110.213 72.1133 110.274 72.0684C110.334 72.0236 110.381 71.9623 110.409 71.8914C110.438 71.8205 110.446 71.7429 110.434 71.6674L109.887 68.2492L112.306 65.8361C112.359 65.7828 112.397 65.7152 112.416 65.6409C112.434 65.5666 112.432 65.4886 112.409 65.4157C112.387 65.3428 112.345 65.278 112.288 65.2284C112.232 65.1789 112.163 65.1467 112.09 65.1355L108.769 64.6278L107.3 61.5149C107.269 61.4492 107.222 61.3933 107.163 61.353C107.104 61.3127 107.035 61.2895 106.965 61.2857V61.2857ZM101.81 65.5129L105.344 64.9932L106.943 61.6956L108.502 65.002L112.03 65.5413L109.46 68.1046L110.042 71.7356L106.894 70.0131L103.726 71.718L104.35 68.0904L101.81 65.5129Z" fill="white"/>
<path opacity="0.4" d="M105.344 64.9932L106.883 66.76L106.943 61.6955L105.344 64.9932Z" fill="#FFFF8F"/>
<path opacity="0.05" d="M112.03 65.5412L106.883 66.7599L109.46 68.1044L112.03 65.5412Z" fill="#8F0000"/>
<path opacity="0.12" d="M106.883 66.76L110.042 71.7356L106.894 70.0132L106.883 66.76Z" fill="#8F0000"/>
<path opacity="0.25" d="M106.883 66.76L104.35 68.0904L103.726 71.718L106.883 66.76Z" fill="#FFFF8F"/>
<path opacity="0.25" d="M101.81 65.5128L105.344 64.9931L106.883 66.7599L101.81 65.5128Z" fill="#FFFF8F"/>
<path opacity="0.4" d="M106.883 66.76L108.503 65.002L112.03 65.5413L106.883 66.76Z" fill="#FFFF8F"/>
</g>
<g clip-path="url(#clip3_0_1)">
<path d="M122.512 61.4902C122.475 61.4901 122.439 61.5007 122.407 61.5208C122.375 61.5409 122.35 61.5698 122.333 61.6041L120.782 64.8052C120.586 64.8339 117.351 65.3096 117.351 65.3096C117.314 65.315 117.28 65.3309 117.251 65.3555C117.223 65.3801 117.201 65.4124 117.19 65.4488C117.178 65.4852 117.176 65.5242 117.185 65.5614C117.194 65.5986 117.212 65.6326 117.239 65.6594C117.239 65.6594 119.564 68.019 119.704 68.1614L119.098 71.6827C119.092 71.7204 119.096 71.7592 119.109 71.7947C119.123 71.8302 119.146 71.861 119.176 71.8836C119.206 71.9062 119.241 71.9197 119.278 71.9226C119.315 71.9254 119.352 71.9175 119.385 71.8998C119.385 71.8998 122.286 70.3392 122.461 70.245L125.517 71.9169C125.549 71.9348 125.586 71.9429 125.623 71.9402C125.66 71.9376 125.696 71.9243 125.726 71.9019C125.756 71.8794 125.78 71.8488 125.794 71.8133C125.808 71.7779 125.812 71.7391 125.806 71.7013L125.242 68.1767L127.736 65.6886C127.763 65.6619 127.782 65.6281 127.791 65.5909C127.8 65.5538 127.799 65.5148 127.788 65.4783C127.777 65.4419 127.756 65.4095 127.728 65.3847C127.699 65.3599 127.665 65.3438 127.628 65.3382C127.628 65.3382 124.399 64.8444 124.204 64.8147L122.69 61.6051C122.674 61.5707 122.648 61.5418 122.617 61.5215C122.586 61.5011 122.549 61.4903 122.512 61.4902V61.4902Z" fill="#FFBF00"/>
<path d="M122.533 61.2857C122.455 61.2816 122.378 61.3009 122.311 61.3413C122.244 61.3816 122.19 61.4413 122.155 61.5129L120.651 64.6174L117.324 65.1066C117.25 65.1174 117.181 65.1492 117.124 65.1984C117.067 65.2476 117.024 65.3122 117.001 65.385C116.978 65.4578 116.974 65.5358 116.992 65.6102C117.009 65.6846 117.046 65.7525 117.099 65.8061L119.49 68.2326L118.902 71.6475C118.889 71.723 118.897 71.8006 118.925 71.8716C118.952 71.9426 118.998 72.0042 119.058 72.0493C119.118 72.0946 119.189 72.1216 119.263 72.1274C119.337 72.1331 119.411 72.1173 119.477 72.0819L122.459 70.477L125.423 72.0984C125.488 72.1343 125.562 72.1505 125.636 72.1452C125.71 72.1399 125.782 72.1133 125.842 72.0684C125.902 72.0236 125.949 71.9623 125.978 71.8914C126.006 71.8205 126.015 71.7429 126.002 71.6674L125.455 68.2492L127.874 65.8361C127.928 65.7828 127.965 65.7152 127.984 65.6409C128.002 65.5666 128 65.4886 127.977 65.4157C127.955 65.3428 127.913 65.278 127.856 65.2284C127.8 65.1789 127.731 65.1467 127.658 65.1355L124.337 64.6278L122.868 61.5149C122.837 61.4492 122.79 61.3933 122.731 61.353C122.672 61.3127 122.603 61.2895 122.533 61.2857V61.2857ZM117.378 65.5129L120.912 64.9932L122.511 61.6956L124.071 65.002L127.598 65.5413L125.028 68.1046L125.61 71.7356L122.462 70.0131L119.294 71.718L119.918 68.0904L117.378 65.5129Z" fill="#EB7100"/>
<path opacity="0.16" d="M122.512 61.4902C122.475 61.4901 122.439 61.5007 122.407 61.5208C122.375 61.5409 122.35 61.5698 122.333 61.6041L120.782 64.8052C120.586 64.8339 117.351 65.3096 117.351 65.3096C117.314 65.315 117.28 65.3309 117.251 65.3555C117.223 65.3801 117.201 65.4124 117.19 65.4488C117.178 65.4852 117.176 65.5242 117.185 65.5614C117.194 65.5986 117.212 65.6326 117.239 65.6594C117.239 65.6594 119.564 68.019 119.704 68.1614L119.098 71.6827C119.092 71.7204 119.096 71.7592 119.109 71.7947C119.123 71.8302 119.146 71.861 119.176 71.8836C119.206 71.9062 119.241 71.9197 119.278 71.9226C119.315 71.9254 119.352 71.9175 119.385 71.8998C119.385 71.8998 122.286 70.3392 122.461 70.245L125.517 71.9169C125.549 71.9348 125.586 71.9429 125.623 71.9402C125.66 71.9376 125.696 71.9243 125.726 71.9019C125.756 71.8794 125.78 71.8488 125.794 71.8133C125.808 71.7779 125.812 71.7391 125.806 71.7013L125.242 68.1767L127.736 65.6886C127.763 65.6619 127.782 65.6281 127.791 65.5909C127.8 65.5538 127.799 65.5148 127.788 65.4783C127.777 65.4419 127.756 65.4095 127.728 65.3847C127.699 65.3599 127.665 65.3438 127.628 65.3382C127.628 65.3382 124.399 64.8444 124.204 64.8147L122.69 61.6051C122.674 61.5707 122.648 61.5418 122.617 61.5215C122.586 61.5011 122.549 61.4903 122.512 61.4902V61.4902Z" fill="white"/>
<path opacity="0.16" d="M122.533 61.2857C122.455 61.2816 122.378 61.3009 122.311 61.3413C122.244 61.3816 122.19 61.4413 122.155 61.5129L120.651 64.6174L117.324 65.1066C117.25 65.1174 117.181 65.1492 117.124 65.1984C117.067 65.2476 117.024 65.3122 117.001 65.385C116.978 65.4578 116.974 65.5358 116.992 65.6102C117.009 65.6846 117.046 65.7525 117.099 65.8061L119.49 68.2326L118.902 71.6475C118.889 71.723 118.897 71.8006 118.925 71.8716C118.952 71.9426 118.998 72.0042 119.058 72.0493C119.118 72.0946 119.189 72.1216 119.263 72.1274C119.337 72.1331 119.411 72.1173 119.477 72.0819L122.459 70.477L125.423 72.0984C125.488 72.1343 125.562 72.1505 125.636 72.1452C125.71 72.1399 125.782 72.1133 125.842 72.0684C125.902 72.0236 125.949 71.9623 125.978 71.8914C126.006 71.8205 126.015 71.7429 126.002 71.6674L125.455 68.2492L127.874 65.8361C127.928 65.7828 127.965 65.7152 127.984 65.6409C128.002 65.5666 128 65.4886 127.977 65.4157C127.955 65.3428 127.913 65.278 127.856 65.2284C127.8 65.1789 127.731 65.1467 127.658 65.1355L124.337 64.6278L122.868 61.5149C122.837 61.4492 122.79 61.3933 122.731 61.353C122.672 61.3127 122.603 61.2895 122.533 61.2857V61.2857ZM117.378 65.5129L120.912 64.9932L122.511 61.6956L124.071 65.002L127.598 65.5413L125.028 68.1046L125.61 71.7356L122.462 70.0131L119.294 71.718L119.918 68.0904L117.378 65.5129Z" fill="white"/>
<path opacity="0.4" d="M120.912 64.9932L122.451 66.76L122.511 61.6955L120.912 64.9932Z" fill="#FFFF8F"/>
<path opacity="0.05" d="M127.598 65.5412L122.451 66.7599L125.028 68.1044L127.598 65.5412Z" fill="#8F0000"/>
<path opacity="0.12" d="M122.451 66.76L125.61 71.7356L122.462 70.0132L122.451 66.76Z" fill="#8F0000"/>
<path opacity="0.25" d="M122.451 66.76L119.918 68.0904L119.294 71.718L122.451 66.76Z" fill="#FFFF8F"/>
<path opacity="0.25" d="M117.378 65.5128L120.912 64.9931L122.451 66.7599L117.378 65.5128Z" fill="#FFFF8F"/>
<path opacity="0.4" d="M122.451 66.76L124.071 65.002L127.598 65.5413L122.451 66.76Z" fill="#FFFF8F"/>
</g>
<g clip-path="url(#clip4_0_1)">
<path d="M138.08 61.4902C138.043 61.4901 138.007 61.5007 137.975 61.5208C137.943 61.5409 137.918 61.5698 137.901 61.6041L136.35 64.8052C136.155 64.8339 132.919 65.3096 132.919 65.3096C132.882 65.315 132.848 65.3309 132.819 65.3555C132.791 65.3801 132.77 65.4124 132.758 65.4488C132.746 65.4852 132.745 65.5242 132.753 65.5614C132.762 65.5986 132.781 65.6326 132.807 65.6594C132.807 65.6594 135.132 68.019 135.272 68.1614L134.666 71.6827C134.66 71.7204 134.664 71.7592 134.677 71.7947C134.691 71.8302 134.714 71.861 134.744 71.8836C134.774 71.9062 134.81 71.9197 134.847 71.9226C134.884 71.9254 134.921 71.9175 134.954 71.8998C134.954 71.8998 137.854 70.3392 138.029 70.245L141.085 71.9169C141.117 71.9348 141.154 71.9429 141.191 71.9402C141.228 71.9376 141.264 71.9243 141.294 71.9019C141.324 71.8794 141.348 71.8488 141.362 71.8133C141.376 71.7779 141.381 71.7391 141.375 71.7013L140.81 68.1767L143.305 65.6886C143.331 65.6619 143.35 65.6281 143.359 65.5909C143.368 65.5538 143.367 65.5148 143.356 65.4783C143.345 65.4419 143.324 65.4095 143.296 65.3847C143.268 65.3599 143.233 65.3438 143.196 65.3382C143.196 65.3382 139.967 64.8444 139.772 64.8147L138.258 61.6051C138.242 61.5707 138.217 61.5418 138.185 61.5215C138.154 61.5011 138.117 61.4903 138.08 61.4902V61.4902Z" fill="#FFBF00"/>
<path d="M138.101 61.2857C138.023 61.2816 137.946 61.3009 137.879 61.3413C137.812 61.3816 137.758 61.4413 137.723 61.5129L136.219 64.6174L132.892 65.1066C132.818 65.1174 132.749 65.1492 132.692 65.1984C132.635 65.2476 132.592 65.3122 132.569 65.385C132.546 65.4578 132.542 65.5358 132.56 65.6102C132.577 65.6846 132.614 65.7525 132.667 65.8061L135.058 68.2326L134.47 71.6475C134.457 71.723 134.465 71.8006 134.493 71.8716C134.52 71.9426 134.567 72.0042 134.626 72.0493C134.686 72.0946 134.757 72.1216 134.831 72.1274C134.905 72.1331 134.979 72.1173 135.045 72.0819L138.027 70.477L140.991 72.0984C141.056 72.1343 141.13 72.1505 141.204 72.1452C141.278 72.1399 141.35 72.1133 141.41 72.0684C141.47 72.0236 141.517 71.9623 141.546 71.8914C141.574 71.8205 141.583 71.7429 141.571 71.6674L141.023 68.2492L143.442 65.8361C143.496 65.7828 143.534 65.7152 143.552 65.6409C143.57 65.5666 143.568 65.4886 143.545 65.4157C143.523 65.3428 143.481 65.278 143.424 65.2284C143.368 65.1789 143.299 65.1467 143.226 65.1355L139.905 64.6278L138.437 61.5149C138.406 61.4492 138.358 61.3933 138.299 61.353C138.24 61.3127 138.172 61.2895 138.101 61.2857V61.2857ZM132.947 65.5129L136.481 64.9932L138.079 61.6956L139.639 65.002L143.166 65.5413L140.596 68.1046L141.178 71.7356L138.03 70.0131L134.862 71.718L135.486 68.0904L132.947 65.5129Z" fill="#EB7100"/>
<path opacity="0.16" d="M138.08 61.4902C138.043 61.4901 138.007 61.5007 137.975 61.5208C137.943 61.5409 137.918 61.5698 137.901 61.6041L136.35 64.8052C136.155 64.8339 132.919 65.3096 132.919 65.3096C132.882 65.315 132.848 65.3309 132.819 65.3555C132.791 65.3801 132.77 65.4124 132.758 65.4488C132.746 65.4852 132.745 65.5242 132.753 65.5614C132.762 65.5986 132.781 65.6326 132.807 65.6594C132.807 65.6594 135.132 68.019 135.272 68.1614L134.666 71.6827C134.66 71.7204 134.664 71.7592 134.677 71.7947C134.691 71.8302 134.714 71.861 134.744 71.8836C134.774 71.9062 134.81 71.9197 134.847 71.9226C134.884 71.9254 134.921 71.9175 134.954 71.8998C134.954 71.8998 137.854 70.3392 138.029 70.245L141.085 71.9169C141.117 71.9348 141.154 71.9429 141.191 71.9402C141.228 71.9376 141.264 71.9243 141.294 71.9019C141.324 71.8794 141.348 71.8488 141.362 71.8133C141.376 71.7779 141.381 71.7391 141.375 71.7013L140.81 68.1767L143.305 65.6886C143.331 65.6619 143.35 65.6281 143.359 65.5909C143.368 65.5538 143.367 65.5148 143.356 65.4783C143.345 65.4419 143.324 65.4095 143.296 65.3847C143.268 65.3599 143.233 65.3438 143.196 65.3382C143.196 65.3382 139.967 64.8444 139.772 64.8147L138.258 61.6051C138.242 61.5707 138.217 61.5418 138.185 61.5215C138.154 61.5011 138.117 61.4903 138.08 61.4902V61.4902Z" fill="white"/>
<path opacity="0.16" d="M138.101 61.2857C138.023 61.2816 137.946 61.3009 137.879 61.3413C137.812 61.3816 137.758 61.4413 137.723 61.5129L136.219 64.6174L132.892 65.1066C132.818 65.1174 132.749 65.1492 132.692 65.1984C132.635 65.2476 132.592 65.3122 132.569 65.385C132.546 65.4578 132.542 65.5358 132.56 65.6102C132.577 65.6846 132.614 65.7525 132.667 65.8061L135.058 68.2326L134.47 71.6475C134.457 71.723 134.465 71.8006 134.493 71.8716C134.52 71.9426 134.567 72.0042 134.626 72.0493C134.686 72.0946 134.757 72.1216 134.831 72.1274C134.905 72.1331 134.979 72.1173 135.045 72.0819L138.027 70.477L140.991 72.0984C141.056 72.1343 141.13 72.1505 141.204 72.1452C141.278 72.1399 141.35 72.1133 141.41 72.0684C141.47 72.0236 141.517 71.9623 141.546 71.8914C141.574 71.8205 141.583 71.7429 141.571 71.6674L141.023 68.2492L143.442 65.8361C143.496 65.7828 143.534 65.7152 143.552 65.6409C143.57 65.5666 143.568 65.4886 143.545 65.4157C143.523 65.3428 143.481 65.278 143.424 65.2284C143.368 65.1789 143.299 65.1467 143.226 65.1355L139.905 64.6278L138.437 61.5149C138.406 61.4492 138.358 61.3933 138.299 61.353C138.24 61.3127 138.172 61.2895 138.101 61.2857V61.2857ZM132.947 65.5129L136.481 64.9932L138.079 61.6956L139.639 65.002L143.166 65.5413L140.596 68.1046L141.178 71.7356L138.03 70.0131L134.862 71.718L135.486 68.0904L132.947 65.5129Z" fill="white"/>
<path opacity="0.4" d="M136.481 64.9932L138.019 66.76L138.079 61.6955L136.481 64.9932Z" fill="#FFFF8F"/>
<path opacity="0.05" d="M143.166 65.5412L138.019 66.7599L140.596 68.1044L143.166 65.5412Z" fill="#8F0000"/>
<path opacity="0.12" d="M138.019 66.76L141.178 71.7356L138.03 70.0132L138.019 66.76Z" fill="#8F0000"/>
<path opacity="0.25" d="M138.019 66.76L135.486 68.0904L134.862 71.718L138.019 66.76Z" fill="#FFFF8F"/>
<path opacity="0.25" d="M132.947 65.5128L136.481 64.9931L138.019 66.7599L132.947 65.5128Z" fill="#FFFF8F"/>
<path opacity="0.4" d="M138.019 66.76L139.639 65.002L143.166 65.5413L138.019 66.76Z" fill="#FFFF8F"/>
</g>
<g clip-path="url(#clip5_0_1)">
<path d="M153.648 61.4902C153.611 61.4901 153.575 61.5007 153.543 61.5208C153.511 61.5409 153.486 61.5698 153.469 61.6041L151.918 64.8052C151.723 64.8339 148.487 65.3096 148.487 65.3096C148.45 65.315 148.416 65.3309 148.387 65.3555C148.359 65.3801 148.338 65.4124 148.326 65.4488C148.314 65.4852 148.313 65.5242 148.321 65.5614C148.33 65.5986 148.349 65.6326 148.375 65.6594C148.375 65.6594 150.7 68.019 150.84 68.1614L150.234 71.6827C150.228 71.7204 150.232 71.7592 150.245 71.7947C150.259 71.8302 150.282 71.861 150.312 71.8836C150.342 71.9062 150.378 71.9197 150.415 71.9226C150.452 71.9254 150.489 71.9175 150.522 71.8998C150.522 71.8998 153.422 70.3392 153.597 70.245L156.653 71.9169C156.685 71.9348 156.722 71.9429 156.759 71.9402C156.796 71.9376 156.832 71.9243 156.862 71.9019C156.892 71.8794 156.916 71.8488 156.93 71.8133C156.944 71.7779 156.949 71.7391 156.943 71.7013L156.378 68.1767L158.873 65.6886C158.899 65.6619 158.918 65.6281 158.927 65.5909C158.936 65.5538 158.935 65.5148 158.924 65.4783C158.913 65.4419 158.892 65.4095 158.864 65.3847C158.836 65.3599 158.801 65.3438 158.764 65.3382C158.764 65.3382 155.535 64.8444 155.34 64.8147L153.826 61.6051C153.81 61.5707 153.784 61.5418 153.753 61.5215C153.722 61.5011 153.685 61.4903 153.648 61.4902V61.4902Z" fill="#FFBF00"/>
<path d="M153.669 61.2857C153.591 61.2816 153.514 61.3009 153.447 61.3413C153.38 61.3816 153.326 61.4413 153.291 61.5129L151.787 64.6174L148.46 65.1066C148.386 65.1174 148.317 65.1492 148.26 65.1984C148.203 65.2476 148.16 65.3122 148.137 65.385C148.114 65.4578 148.11 65.5358 148.128 65.6102C148.145 65.6846 148.182 65.7525 148.235 65.8061L150.626 68.2326L150.038 71.6475C150.025 71.723 150.033 71.8006 150.061 71.8716C150.088 71.9426 150.135 72.0042 150.194 72.0493C150.254 72.0946 150.325 72.1216 150.399 72.1274C150.473 72.1331 150.547 72.1173 150.613 72.0819L153.595 70.477L156.559 72.0984C156.624 72.1343 156.698 72.1505 156.772 72.1452C156.846 72.1399 156.918 72.1133 156.978 72.0684C157.038 72.0236 157.085 71.9623 157.114 71.8914C157.142 71.8205 157.151 71.7429 157.139 71.6674L156.591 68.2492L159.01 65.8361C159.064 65.7828 159.102 65.7152 159.12 65.6409C159.138 65.5666 159.136 65.4886 159.113 65.4157C159.091 65.3428 159.049 65.278 158.992 65.2284C158.936 65.1789 158.867 65.1467 158.794 65.1355L155.473 64.6278L154.005 61.5149C153.974 61.4492 153.926 61.3933 153.867 61.353C153.808 61.3127 153.74 61.2895 153.669 61.2857V61.2857ZM148.515 65.5129L152.049 64.9932L153.647 61.6956L155.207 65.002L158.734 65.5413L156.164 68.1046L156.746 71.7356L153.598 70.0131L150.43 71.718L151.054 68.0904L148.515 65.5129Z" fill="#EB7100"/>
<path opacity="0.16" d="M153.648 61.4902C153.611 61.4901 153.575 61.5007 153.543 61.5208C153.511 61.5409 153.486 61.5698 153.469 61.6041L151.918 64.8052C151.723 64.8339 148.487 65.3096 148.487 65.3096C148.45 65.315 148.416 65.3309 148.387 65.3555C148.359 65.3801 148.338 65.4124 148.326 65.4488C148.314 65.4852 148.313 65.5242 148.321 65.5614C148.33 65.5986 148.349 65.6326 148.375 65.6594C148.375 65.6594 150.7 68.019 150.84 68.1614L150.234 71.6827C150.228 71.7204 150.232 71.7592 150.245 71.7947C150.259 71.8302 150.282 71.861 150.312 71.8836C150.342 71.9062 150.378 71.9197 150.415 71.9226C150.452 71.9254 150.489 71.9175 150.522 71.8998C150.522 71.8998 153.422 70.3392 153.597 70.245L156.653 71.9169C156.685 71.9348 156.722 71.9429 156.759 71.9402C156.796 71.9376 156.832 71.9243 156.862 71.9019C156.892 71.8794 156.916 71.8488 156.93 71.8133C156.944 71.7779 156.949 71.7391 156.943 71.7013L156.378 68.1767L158.873 65.6886C158.899 65.6619 158.918 65.6281 158.927 65.5909C158.936 65.5538 158.935 65.5148 158.924 65.4783C158.913 65.4419 158.892 65.4095 158.864 65.3847C158.836 65.3599 158.801 65.3438 158.764 65.3382C158.764 65.3382 155.535 64.8444 155.34 64.8147L153.826 61.6051C153.81 61.5707 153.784 61.5418 153.753 61.5215C153.722 61.5011 153.685 61.4903 153.648 61.4902Z" fill="white"/>
<path opacity="0.16" d="M153.669 61.2857C153.591 61.2816 153.514 61.3009 153.447 61.3413C153.38 61.3816 153.326 61.4413 153.291 61.5129L151.787 64.6174L148.46 65.1066C148.386 65.1174 148.317 65.1492 148.26 65.1984C148.203 65.2476 148.16 65.3122 148.137 65.385C148.114 65.4578 148.11 65.5358 148.128 65.6102C148.145 65.6846 148.182 65.7525 148.235 65.8061L150.626 68.2326L150.038 71.6475C150.025 71.723 150.033 71.8006 150.061 71.8716C150.088 71.9426 150.135 72.0042 150.194 72.0493C150.254 72.0946 150.325 72.1216 150.399 72.1274C150.473 72.1331 150.547 72.1173 150.613 72.0819L153.595 70.477L156.559 72.0984C156.624 72.1343 156.698 72.1505 156.772 72.1452C156.846 72.1399 156.918 72.1133 156.978 72.0684C157.038 72.0236 157.085 71.9623 157.114 71.8914C157.142 71.8205 157.151 71.7429 157.139 71.6674L156.591 68.2492L159.01 65.8361C159.064 65.7828 159.102 65.7152 159.12 65.6409C159.138 65.5666 159.136 65.4886 159.113 65.4157C159.091 65.3428 159.049 65.278 158.992 65.2284C158.936 65.1789 158.867 65.1467 158.794 65.1355L155.473 64.6278L154.005 61.5149C153.974 61.4492 153.926 61.3933 153.867 61.353C153.808 61.3127 153.74 61.2895 153.669 61.2857V61.2857ZM148.515 65.5129L152.049 64.9932L153.647 61.6956L155.207 65.002L158.734 65.5413L156.164 68.1046L156.746 71.7356L153.598 70.0131L150.43 71.718L151.054 68.0904L148.515 65.5129Z" fill="white"/>
<path opacity="0.4" d="M152.049 64.9932L153.587 66.76L153.647 61.6955L152.049 64.9932Z" fill="#FFFF8F"/>
<path d="M153.587 66.7599L155.772 65.5034L156.746 71.7355L153.598 70.0131L153.587 66.7599Z" fill="white"/>
<path opacity="0.25" d="M153.587 66.76L151.054 68.0904L150.43 71.718L153.587 66.76Z" fill="#FFFF8F"/>
<path opacity="0.25" d="M148.515 65.5128L152.049 64.9931L153.587 66.7599L148.515 65.5128Z" fill="#FFFF8F"/>
<path d="M153.587 66.76L153.587 61.7456L155.207 65.002L158.734 65.5413L155.772 68.5034L153.587 66.76Z" fill="white"/>
</g>
</g>
<path d="M234.344 41.8044H224.234C223.56 41.8047 222.914 42.0726 222.437 42.5491C221.961 43.0257 221.693 43.6719 221.693 44.3459V54.4558C221.693 55.1297 221.961 55.776 222.437 56.2525C222.914 56.7291 223.56 56.9969 224.234 56.9972H234.344C235.018 56.9969 235.664 56.7291 236.141 56.2525C236.617 55.776 236.885 55.1297 236.886 54.4558V44.3459C236.885 43.6719 236.617 43.0257 236.141 42.5491C235.664 42.0726 235.018 41.8047 234.344 41.8044ZM234.763 53.8414C234.763 54.1154 234.654 54.3783 234.46 54.5721C234.267 54.7658 234.004 54.8747 233.73 54.8747H224.849C224.575 54.8747 224.312 54.7658 224.118 54.5721C223.924 54.3783 223.815 54.1154 223.815 53.8414V44.9603C223.815 44.6862 223.924 44.4234 224.118 44.2296C224.312 44.0358 224.575 43.927 224.849 43.927H233.73C234.004 43.927 234.267 44.0358 234.46 44.2296C234.654 44.4234 234.763 44.6862 234.763 44.9603V53.8414Z" fill="black"/>
<path d="M228.2 47.2783H230.378C231.067 47.2783 231.412 47.6228 231.412 48.3117V50.49C231.412 51.1789 231.067 51.5234 230.378 51.5234H228.2C227.511 51.5234 227.167 51.1789 227.167 50.49V48.3117C227.167 47.6228 227.511 47.2783 228.2 47.2783Z" fill="black"/>
<path d="M251.883 41.8044H241.773C241.099 41.8047 240.453 42.0726 239.976 42.5491C239.5 43.0257 239.232 43.6719 239.232 44.3459V54.4558C239.232 55.1297 239.5 55.776 239.976 56.2525C240.453 56.7291 241.099 56.9969 241.773 56.9972H251.883C252.557 56.9969 253.203 56.7291 253.68 56.2525C254.156 55.776 254.424 55.1297 254.424 54.4558V44.3459C254.424 43.6719 254.156 43.0257 253.68 42.5491C253.203 42.0726 252.557 41.8047 251.883 41.8044V41.8044ZM252.302 53.8414C252.302 54.1154 252.193 54.3783 251.999 54.5721C251.805 54.7658 251.543 54.8747 251.269 54.8747H242.387C242.113 54.8747 241.851 54.7658 241.657 54.5721C241.463 54.3783 241.354 54.1154 241.354 53.8414V44.9603C241.354 44.6862 241.463 44.4234 241.657 44.2296C241.851 44.0358 242.113 43.927 242.387 43.927H251.269C251.543 43.927 251.805 44.0358 251.999 44.2296C252.193 44.4234 252.302 44.6862 252.302 44.9603V53.8414Z" fill="black"/>
<path d="M245.739 47.2783H247.917C248.606 47.2783 248.95 47.6228 248.95 48.3117V50.49C248.95 51.1789 248.606 51.5234 247.917 51.5234H245.739C245.05 51.5234 244.705 51.1789 244.705 50.49V48.3117C244.705 47.6228 245.05 47.2783 245.739 47.2783Z" fill="black"/>
<path d="M234.344 59.3433H224.234C223.56 59.3436 222.914 59.6114 222.437 60.088C221.961 60.5645 221.693 61.2108 221.693 61.8847V71.9946C221.693 72.6686 221.961 73.3148 222.437 73.7914C222.914 74.2679 223.56 74.5358 224.234 74.5361H234.344C235.018 74.5358 235.664 74.2679 236.141 73.7914C236.617 73.3148 236.885 72.6686 236.886 71.9946V61.8847C236.885 61.2108 236.617 60.5645 236.141 60.088C235.664 59.6114 235.018 59.3436 234.344 59.3433V59.3433ZM234.763 71.3802C234.763 71.6543 234.654 71.9171 234.46 72.1109C234.267 72.3047 234.004 72.4135 233.73 72.4135H224.849C224.575 72.4135 224.312 72.3047 224.118 72.1109C223.924 71.9171 223.815 71.6543 223.815 71.3802V62.4991C223.815 62.3634 223.842 62.229 223.894 62.1037C223.946 61.9783 224.022 61.8644 224.118 61.7684C224.214 61.6725 224.328 61.5964 224.453 61.5444C224.579 61.4925 224.713 61.4658 224.849 61.4658H233.73C234.004 61.4658 234.267 61.5747 234.46 61.7684C234.654 61.9622 234.763 62.2251 234.763 62.4991V71.3802Z" fill="black"/>
<path d="M228.2 64.8171H230.378C231.067 64.8171 231.412 65.1616 231.412 65.8505V68.0288C231.412 68.7177 231.067 69.0622 230.378 69.0622H228.2C227.511 69.0622 227.167 68.7177 227.167 68.0288V65.8505C227.167 65.1616 227.511 64.8171 228.2 64.8171Z" fill="black"/>
<path d="M241.605 60.2368C241.331 60.2368 241.068 60.3457 240.875 60.5395C240.681 60.7333 240.572 60.9961 240.572 61.2701V63.4485C240.572 63.7226 240.681 63.9854 240.875 64.1792C241.068 64.373 241.331 64.4819 241.605 64.4819C241.879 64.4819 242.142 64.373 242.336 64.1792C242.53 63.9854 242.639 63.7226 242.639 63.4485V61.2701C242.639 60.9961 242.53 60.7333 242.336 60.5395C242.142 60.3457 241.879 60.2368 241.605 60.2368ZM241.605 65.4873C241.331 65.4873 241.068 65.5961 240.875 65.7899C240.681 65.9837 240.572 66.2465 240.572 66.5206V72.8323C240.572 73.1064 240.681 73.3692 240.875 73.563C241.068 73.7568 241.331 73.8656 241.605 73.8656C241.741 73.8656 241.875 73.8389 242.001 73.787C242.126 73.7351 242.24 73.6589 242.336 73.563C242.432 73.467 242.508 73.3531 242.56 73.2277C242.612 73.1024 242.639 72.968 242.639 72.8323V66.5206C242.639 66.2465 242.53 65.9837 242.336 65.7899C242.142 65.5961 241.879 65.4873 241.605 65.4873ZM252.33 60.2368C252.056 60.2368 251.793 60.3457 251.599 60.5395C251.405 60.7333 251.296 60.9961 251.296 61.2701V63.4485C251.296 63.7226 251.405 63.9854 251.599 64.1792C251.793 64.373 252.056 64.4819 252.33 64.4819C252.604 64.4819 252.867 64.373 253.06 64.1792C253.254 63.9854 253.363 63.7226 253.363 63.4485V61.2701C253.363 60.9961 253.254 60.7333 253.06 60.5395C252.867 60.3457 252.604 60.2368 252.33 60.2368ZM252.33 65.4873C252.056 65.4873 251.793 65.5961 251.599 65.7899C251.405 65.9837 251.296 66.2465 251.296 66.5206V72.8323C251.296 72.968 251.323 73.1024 251.375 73.2277C251.427 73.3531 251.503 73.467 251.599 73.563C251.695 73.6589 251.809 73.7351 251.934 73.787C252.06 73.8389 252.194 73.8656 252.33 73.8656C252.604 73.8656 252.867 73.7568 253.06 73.563C253.254 73.3692 253.363 73.1064 253.363 72.8323V66.5206C253.363 66.2465 253.254 65.9837 253.06 65.7899C252.867 65.5961 252.604 65.4873 252.33 65.4873ZM246.856 60.2368C246.582 60.2368 246.319 60.3457 246.125 60.5395C245.931 60.7333 245.822 60.9961 245.822 61.2701V65.4593C245.823 65.7334 245.931 65.9961 246.125 66.1899C246.319 66.3836 246.582 66.4924 246.856 66.4924C247.13 66.4924 247.393 66.3836 247.586 66.1899C247.78 65.9961 247.889 65.7334 247.889 65.4593V61.2701C247.889 60.9961 247.78 60.7333 247.586 60.5395C247.393 60.3457 247.13 60.2368 246.856 60.2368ZM246.856 67.4981C246.582 67.4981 246.319 67.6069 246.125 67.8007C245.931 67.9945 245.822 68.2574 245.822 68.5314V72.8323C245.822 72.968 245.849 73.1024 245.901 73.2277C245.953 73.3531 246.029 73.467 246.125 73.563C246.221 73.6589 246.335 73.7351 246.46 73.787C246.586 73.8389 246.72 73.8656 246.856 73.8656C247.13 73.8656 247.393 73.7568 247.586 73.563C247.78 73.3692 247.889 73.1064 247.889 72.8323V68.5314C247.889 68.2574 247.78 67.9945 247.586 67.8007C247.393 67.6069 247.13 67.4981 246.856 67.4981Z" fill="black"/>
<rect x="200.5" y="51" width="1" height="14" fill="black"/>
<defs>
<filter id="filter0_d_0_1" x="0.5" y="0" width="298" height="114" filterUnits="userSpaceOnUse" color-interpolation-filters="sRGB">
<feFlood flood-opacity="0" result="BackgroundImageFix"/>
<feColorMatrix in="SourceAlpha" type="matrix" values="0 0 0 0 0 0 0 0 0 0 0 0 0 0 0 0 0 0 127 0" result="hardAlpha"/>
<feMorphology radius="1" operator="dilate" in="SourceAlpha" result="effect1_dropShadow_0_1"/>
<feOffset/>
<feGaussianBlur stdDeviation="10.5"/>
<feComposite in2="hardAlpha" operator="out"/>
<feColorMatrix type="matrix" values="0 0 0 0 0.851719 0 0 0 0 0.950469 0 0 0 0 0.9875 0 0 0 1 0"/>
<feBlend mode="normal" in2="BackgroundImageFix" result="effect1_dropShadow_0_1"/>
<feBlend mode="normal" in="SourceGraphic" in2="effect1_dropShadow_0_1" result="shape"/>
</filter>
<clipPath id="clip0_0_1">
<rect width="144" height="38" fill="white" transform="translate(46.5 39)"/>
</clipPath>
<clipPath id="clip1_0_1">
<rect width="11" height="11" fill="white" transform="translate(86.0836 61.0034) rotate(3.04106)"/>
</clipPath>
<clipPath id="clip2_0_1">
<rect width="11" height="11" fill="white" transform="translate(101.652 61.0034) rotate(3.04106)"/>
</clipPath>
<clipPath id="clip3_0_1">
<rect width="11" height="11" fill="white" transform="translate(117.22 61.0034) rotate(3.04106)"/>
</clipPath>
<clipPath id="clip4_0_1">
<rect width="11" height="11" fill="white" transform="translate(132.788 61.0034) rotate(3.04106)"/>
</clipPath>
<clipPath id="clip5_0_1">
<rect width="11" height="11" fill="white" transform="translate(148.356 61.0034) rotate(3.04106)"/>
</clipPath>
</defs>
</svg>
