<svg width="720" height="80" viewBox="0 0 720 80" fill="none" xmlns="http://www.w3.org/2000/svg">
<rect x="0.5" y="0.5" width="499" height="79" rx="39.5" fill="white" stroke="#5687FC"/>
<rect x="514" width="206" height="80" rx="40" fill="#5687FC"/>
<path d="M47.53 46V32.86H56.17V34.624H49.51V38.26H55.81V39.988H49.51V44.236H56.17V46H47.53ZM58.7766 46V36.64H60.5946L60.6126 37.9H60.6486C60.9606 37.432 61.3566 37.078 61.8366 36.838C62.3166 36.586 62.8566 36.46 63.4566 36.46C64.0806 36.46 64.6146 36.586 65.0586 36.838C65.5146 37.09 65.8386 37.444 66.0306 37.9H66.0666C66.3786 37.408 66.7806 37.048 67.2726 36.82C67.7646 36.58 68.3526 36.46 69.0366 36.46C70.0686 36.46 70.8066 36.754 71.2506 37.342C71.6946 37.918 71.9166 38.884 71.9166 40.24V46H70.0086V40.51C70.0086 39.634 69.8886 39.01 69.6486 38.638C69.4086 38.266 69.0066 38.08 68.4426 38.08C67.7586 38.08 67.2306 38.332 66.8586 38.836C66.4866 39.328 66.3006 40.036 66.3006 40.96V46H64.3926V40.06C64.3926 39.424 64.2546 38.938 63.9786 38.602C63.7026 38.254 63.3186 38.08 62.8266 38.08C62.2026 38.08 61.6866 38.35 61.2786 38.89C60.8826 39.418 60.6846 40.108 60.6846 40.96V46H58.7766ZM76.6172 46.18C75.6812 46.18 74.9432 45.928 74.4032 45.424C73.8632 44.908 73.5932 44.212 73.5932 43.336C73.5932 42.244 74.0252 41.404 74.8892 40.816C75.7532 40.216 76.9832 39.916 78.5792 39.916H79.9292C79.9292 39.244 79.7552 38.77 79.4072 38.494C79.0712 38.218 78.4892 38.08 77.6612 38.08C77.0612 38.08 76.4852 38.152 75.9332 38.296C75.3932 38.44 74.8412 38.674 74.2772 38.998L74.0252 37.342C74.6012 37.042 75.2012 36.82 75.8252 36.676C76.4612 36.532 77.1512 36.46 77.8952 36.46C78.8552 36.46 79.6232 36.58 80.1992 36.82C80.7872 37.06 81.2132 37.45 81.4772 37.99C81.7412 38.53 81.8732 39.238 81.8732 40.114V46H80.0192L80.0012 44.92H79.9652C79.6412 45.292 79.1612 45.598 78.5252 45.838C77.9012 46.066 77.2652 46.18 76.6172 46.18ZM77.3012 44.596C77.7812 44.596 78.2192 44.506 78.6152 44.326C79.0232 44.146 79.3412 43.906 79.5692 43.606C79.8092 43.306 79.9292 42.97 79.9292 42.598V41.392H78.8492C77.7452 41.392 76.9172 41.536 76.3652 41.824C75.8132 42.112 75.5372 42.55 75.5372 43.138C75.5372 43.594 75.6872 43.954 75.9872 44.218C76.2992 44.47 76.7372 44.596 77.3012 44.596ZM84.8204 46V36.64H86.8004V46H84.8204ZM85.8104 35.272C85.4144 35.272 85.0964 35.158 84.8564 34.93C84.6284 34.69 84.5144 34.372 84.5144 33.976C84.5144 33.58 84.6284 33.268 84.8564 33.04C85.0964 32.8 85.4144 32.68 85.8104 32.68C86.2064 32.68 86.5184 32.8 86.7464 33.04C86.9864 33.268 87.1064 33.58 87.1064 33.976C87.1064 34.372 86.9864 34.69 86.7464 34.93C86.5184 35.158 86.2064 35.272 85.8104 35.272ZM90.1218 46V32.86H92.1018V46H90.1218Z" fill="#A6AFBE"/>
<path d="M595.928 48.24C593.88 48.24 592.04 47.76 590.408 46.8L590.936 44.448C591.832 44.912 592.664 45.256 593.432 45.48C594.2 45.688 594.976 45.792 595.76 45.792C596.752 45.792 597.552 45.616 598.16 45.264C598.784 44.912 599.232 44.352 599.504 43.584C599.792 42.816 599.936 41.808 599.936 40.56V30.48H602.648V41.04C602.648 43.472 602.096 45.28 600.992 46.464C599.904 47.648 598.216 48.24 595.928 48.24ZM611.426 48.24C610.146 48.24 609.034 47.976 608.09 47.448C607.162 46.92 606.442 46.168 605.93 45.192C605.434 44.216 605.186 43.072 605.186 41.76C605.186 40.432 605.434 39.288 605.93 38.328C606.442 37.352 607.162 36.6 608.09 36.072C609.034 35.544 610.138 35.28 611.402 35.28C612.698 35.28 613.81 35.544 614.738 36.072C615.666 36.6 616.386 37.352 616.898 38.328C617.41 39.288 617.666 40.432 617.666 41.76C617.666 43.072 617.41 44.216 616.898 45.192C616.386 46.168 615.666 46.92 614.738 47.448C613.81 47.976 612.706 48.24 611.426 48.24ZM611.426 46.08C612.578 46.08 613.474 45.704 614.114 44.952C614.754 44.184 615.074 43.12 615.074 41.76C615.074 40.384 614.754 39.32 614.114 38.568C613.474 37.816 612.578 37.44 611.426 37.44C610.274 37.44 609.378 37.816 608.738 38.568C608.098 39.32 607.778 40.384 607.778 41.76C607.778 43.12 608.098 44.184 608.738 44.952C609.378 45.704 610.274 46.08 611.426 46.08ZM621.042 48V35.52H623.682V48H621.042ZM622.362 33.696C621.834 33.696 621.41 33.544 621.09 33.24C620.786 32.92 620.634 32.496 620.634 31.968C620.634 31.44 620.786 31.024 621.09 30.72C621.41 30.4 621.834 30.24 622.362 30.24C622.89 30.24 623.306 30.4 623.61 30.72C623.93 31.024 624.09 31.44 624.09 31.968C624.09 32.496 623.93 32.92 623.61 33.24C623.306 33.544 622.89 33.696 622.362 33.696ZM627.989 48V35.52H630.461L630.485 37.2H630.533C631.093 36.544 631.725 36.064 632.429 35.76C633.149 35.44 633.965 35.28 634.877 35.28C636.397 35.28 637.509 35.728 638.213 36.624C638.917 37.504 639.269 38.896 639.269 40.8V48H636.677V41.28C636.677 39.984 636.469 39.024 636.053 38.4C635.637 37.76 635.005 37.44 634.157 37.44C633.501 37.44 632.901 37.608 632.357 37.944C631.813 38.264 631.381 38.696 631.061 39.24C630.741 39.784 630.581 40.384 630.581 41.04V48H627.989Z" fill="white"/>
<rect x="125" y="28" width="2" height="22" fill="#A6AFBE"/>
</svg>
