<svg width="204" height="44" viewBox="0 0 204 44" fill="none" xmlns="http://www.w3.org/2000/svg">
<path d="M190 1H14L13.9241 1C11.16 0.999981 8.98359 0.999966 7.28312 1.22859C5.53835 1.46317 4.1457 1.9548 3.05025 3.05025C1.9548 4.1457 1.46317 5.53835 1.22859 7.28312C0.999966 8.98359 0.999981 11.16 1 13.9241L1 14V30L1 30.0759C0.999981 32.84 0.999966 35.0164 1.22859 36.7169C1.46317 38.4617 1.9548 39.8543 3.05025 40.9497C4.1457 42.0452 5.53835 42.5368 7.28312 42.7714C8.98358 43 11.16 43 13.924 43H14H190H190.076C192.84 43 195.016 43 196.717 42.7714C198.462 42.5368 199.854 42.0452 200.95 40.9497C202.045 39.8543 202.537 38.4617 202.771 36.7169C203 35.0164 203 32.8399 203 30.0758V30V14V13.9242C203 11.1601 203 8.98361 202.771 7.28312C202.537 5.53835 202.045 4.1457 200.95 3.05025C199.854 1.9548 198.462 1.46317 196.717 1.22859C195.016 0.999966 192.84 0.999981 190.076 1L190 1Z" fill="white" stroke="white" stroke-width="2"/>
<path d="M16.392 30.18C14.904 30.18 13.5 29.862 12.18 29.226L12.666 26.544C13.47 26.88 14.136 27.12 14.664 27.264C15.192 27.396 15.702 27.462 16.194 27.462C16.794 27.462 17.262 27.36 17.598 27.156C17.946 26.94 18.192 26.586 18.336 26.094C18.492 25.59 18.57 24.912 18.57 24.06V16.86H21.72V24.654C21.72 26.538 21.282 27.93 20.406 28.83C19.542 29.73 18.204 30.18 16.392 30.18ZM30.2445 30.18C28.8285 30.18 27.6105 29.91 26.5905 29.37C25.5705 28.83 24.7845 28.056 24.2325 27.048C23.6925 26.04 23.4225 24.834 23.4225 23.43C23.4225 22.026 23.6925 20.82 24.2325 19.812C24.7845 18.804 25.5705 18.03 26.5905 17.49C27.6105 16.95 28.8285 16.68 30.2445 16.68C31.6605 16.68 32.8725 16.95 33.8805 17.49C34.9005 18.03 35.6805 18.804 36.2205 19.812C36.7725 20.82 37.0485 22.026 37.0485 23.43C37.0485 24.834 36.7725 26.04 36.2205 27.048C35.6805 28.056 34.9005 28.83 33.8805 29.37C32.8725 29.91 31.6605 30.18 30.2445 30.18ZM30.2445 27.534C31.0245 27.534 31.6905 27.378 32.2425 27.066C32.7945 26.742 33.2085 26.28 33.4845 25.68C33.7725 25.068 33.9165 24.318 33.9165 23.43C33.9165 22.542 33.7725 21.798 33.4845 21.198C33.2085 20.586 32.7945 20.124 32.2425 19.812C31.6905 19.488 31.0245 19.326 30.2445 19.326C29.4525 19.326 28.7805 19.488 28.2285 19.812C27.6885 20.124 27.2745 20.586 26.9865 21.198C26.7105 21.798 26.5725 22.542 26.5725 23.43C26.5725 24.318 26.7105 25.068 26.9865 25.68C27.2745 26.28 27.6885 26.742 28.2285 27.066C28.7805 27.378 29.4525 27.534 30.2445 27.534ZM39.0141 30V16.86H42.2181V30H39.0141ZM44.8119 30V16.86H47.9439L52.6419 24.834H52.6779V16.86H55.7379V30H52.6239L47.9079 22.026H47.8719V30H44.8119ZM66.2097 30V19.506H62.2317V16.86H73.3377V19.506H69.3597V30H66.2097ZM82.6607 30V16.86H85.7207V30H82.6607ZM75.0287 30V16.86H78.0887V30H75.0287ZM76.5587 24.528V21.882H84.1907V24.528H76.5587ZM88.1771 30V16.86H97.4291V19.362H91.2371V21.99H97.0691V24.42H91.2371V27.498H97.4291V30H88.1771ZM106.524 30L103.698 16.86H106.83L108.414 26.544H108.45L109.998 17.94H113.688L115.236 26.544H115.272L116.856 16.86H119.988L117.18 30H113.472L111.87 21.396H111.834L110.214 30H106.524ZM119.705 30L124.007 16.86H128.147L132.431 30H129.065L126.095 19.47H126.059L123.071 30H119.705ZM122.513 27.282V24.708H129.623V27.282H122.513ZM133.918 30V16.86H137.122V30H133.918ZM142.938 30V19.506H138.96V16.86H150.066V19.506H146.088V30H142.938ZM151.757 30V16.86H154.907V27.354H161.423V30H151.757ZM163.291 30V16.86H166.495V30H163.291ZM173.517 30.18C172.581 30.18 171.675 30.084 170.799 29.892C169.935 29.688 169.209 29.418 168.621 29.082L169.305 26.436C169.713 26.652 170.175 26.85 170.691 27.03C171.207 27.21 171.729 27.354 172.257 27.462C172.785 27.558 173.271 27.606 173.715 27.606C174.375 27.606 174.879 27.492 175.227 27.264C175.587 27.036 175.767 26.712 175.767 26.292C175.767 26.076 175.713 25.89 175.605 25.734C175.497 25.566 175.323 25.416 175.083 25.284C174.855 25.152 174.543 25.02 174.147 24.888C173.763 24.756 173.295 24.612 172.743 24.456C172.071 24.276 171.477 24.066 170.961 23.826C170.457 23.574 170.031 23.286 169.683 22.962C169.335 22.638 169.071 22.266 168.891 21.846C168.723 21.426 168.639 20.958 168.639 20.442C168.639 19.23 169.101 18.3 170.025 17.652C170.961 17.004 172.293 16.68 174.021 16.68C174.873 16.68 175.713 16.758 176.541 16.914C177.381 17.058 178.101 17.262 178.701 17.526L178.035 20.172C177.423 19.884 176.763 19.662 176.055 19.506C175.347 19.338 174.657 19.254 173.985 19.254C173.265 19.254 172.725 19.356 172.365 19.56C172.017 19.752 171.843 20.046 171.843 20.442C171.843 20.658 171.891 20.85 171.987 21.018C172.083 21.186 172.239 21.342 172.455 21.486C172.683 21.618 172.977 21.75 173.337 21.882C173.697 22.014 174.141 22.152 174.669 22.296C175.401 22.512 176.031 22.746 176.559 22.998C177.099 23.238 177.543 23.514 177.891 23.826C178.251 24.138 178.521 24.498 178.701 24.906C178.881 25.314 178.971 25.776 178.971 26.292C178.971 27.54 178.497 28.5 177.549 29.172C176.601 29.844 175.257 30.18 173.517 30.18ZM183.755 30V19.506H179.777V16.86H190.883V19.506H186.905V30H183.755Z" fill="#6079FE"/>
</svg>
