<svg width="251" height="67" viewBox="0 0 251 67" fill="none" xmlns="http://www.w3.org/2000/svg">
<path d="M225 1H26H25.9211C20.331 0.99999 16.0337 0.999982 12.6995 1.44826C9.32084 1.90251 6.78174 2.83348 4.80761 4.80761C2.83348 6.78174 1.90251 9.32084 1.44826 12.6995C0.999982 16.0337 0.99999 20.331 1 25.9211V26V41V41.0789C0.99999 46.669 0.999982 50.9663 1.44826 54.3005C1.90251 57.6792 2.83348 60.2183 4.80761 62.1924C6.78174 64.1665 9.32084 65.0975 12.6995 65.5517C16.0337 66 20.3311 66 25.9212 66H26H225H225.079C230.669 66 234.966 66 238.301 65.5517C241.679 65.0975 244.218 64.1665 246.192 62.1924C248.167 60.2183 249.098 57.6792 249.552 54.3005C250 50.9663 250 46.6689 250 41.0788V41V26V25.9212C250 20.3311 250 16.0337 249.552 12.6995C249.098 9.32084 248.167 6.78174 246.192 4.80761C244.218 2.83348 241.679 1.90251 238.301 1.44826C234.966 0.999982 230.669 0.99999 225.079 1H225Z" fill="#5687FC" stroke="white" stroke-width="2"/>
<path d="M23.88 42.7C22.2267 42.7 20.6667 42.3467 19.2 41.64L19.74 38.66C20.6333 39.0333 21.3733 39.3 21.96 39.46C22.5467 39.6067 23.1133 39.68 23.66 39.68C24.3267 39.68 24.8467 39.5667 25.22 39.34C25.6067 39.1 25.88 38.7067 26.04 38.16C26.2133 37.6 26.3 36.8467 26.3 35.9V27.9H29.8V36.56C29.8 38.6533 29.3133 40.2 28.34 41.2C27.38 42.2 25.8933 42.7 23.88 42.7ZM39.2717 42.7C37.6984 42.7 36.3451 42.4 35.2117 41.8C34.0784 41.2 33.2051 40.34 32.5917 39.22C31.9917 38.1 31.6917 36.76 31.6917 35.2C31.6917 33.64 31.9917 32.3 32.5917 31.18C33.2051 30.06 34.0784 29.2 35.2117 28.6C36.3451 28 37.6984 27.7 39.2717 27.7C40.8451 27.7 42.1917 28 43.3117 28.6C44.4451 29.2 45.3117 30.06 45.9117 31.18C46.5251 32.3 46.8317 33.64 46.8317 35.2C46.8317 36.76 46.5251 38.1 45.9117 39.22C45.3117 40.34 44.4451 41.2 43.3117 41.8C42.1917 42.4 40.8451 42.7 39.2717 42.7ZM39.2717 39.76C40.1384 39.76 40.8784 39.5867 41.4917 39.24C42.1051 38.88 42.5651 38.3667 42.8717 37.7C43.1917 37.02 43.3517 36.1867 43.3517 35.2C43.3517 34.2133 43.1917 33.3867 42.8717 32.72C42.5651 32.04 42.1051 31.5267 41.4917 31.18C40.8784 30.82 40.1384 30.64 39.2717 30.64C38.3917 30.64 37.6451 30.82 37.0317 31.18C36.4317 31.5267 35.9717 32.04 35.6517 32.72C35.3451 33.3867 35.1917 34.2133 35.1917 35.2C35.1917 36.1867 35.3451 37.02 35.6517 37.7C35.9717 38.3667 36.4317 38.88 37.0317 39.24C37.6451 39.5867 38.3917 39.76 39.2717 39.76ZM49.0156 42.5V27.9H52.5756V42.5H49.0156ZM55.4577 42.5V27.9H58.9377L64.1577 36.76H64.1977V27.9H67.5977V42.5H64.1377L58.8977 33.64H58.8577V42.5H55.4577ZM79.233 42.5V30.84H74.813V27.9H87.153V30.84H82.733V42.5H79.233ZM97.5119 42.5V27.9H100.912V42.5H97.5119ZM89.0319 42.5V27.9H92.4319V42.5H89.0319ZM90.7319 36.42V33.48H99.2119V36.42H90.7319ZM103.641 42.5V27.9H113.921V30.68H107.041V33.6H113.521V36.3H107.041V39.72H113.921V42.5H103.641ZM124.027 42.5L120.887 27.9H124.367L126.127 38.66H126.167L127.887 29.1H131.987L133.707 38.66H133.747L135.507 27.9H138.987L135.867 42.5H131.747L129.967 32.94H129.927L128.127 42.5H124.027ZM149.348 42.5V27.9H152.748V42.5H149.348ZM140.868 42.5V27.9H144.268V42.5H140.868ZM142.568 36.42V33.48H151.048V36.42H142.568ZM155.617 42.5V27.9H159.177V42.5H155.617ZM165.639 42.5V30.84H161.219V27.9H173.559V30.84H169.139V42.5H165.639ZM175.438 42.5V27.9H185.718V30.68H178.838V33.6H185.318V36.3H178.838V39.72H185.718V42.5H175.438ZM188.192 42.5V27.9H191.692V39.56H198.932V42.5H188.192ZM201.008 42.5V27.9H204.568V42.5H201.008ZM212.37 42.7C211.33 42.7 210.323 42.5933 209.35 42.38C208.39 42.1533 207.583 41.8533 206.93 41.48L207.69 38.54C208.143 38.78 208.657 39 209.23 39.2C209.803 39.4 210.383 39.56 210.97 39.68C211.557 39.7867 212.097 39.84 212.59 39.84C213.323 39.84 213.883 39.7133 214.27 39.46C214.67 39.2067 214.87 38.8467 214.87 38.38C214.87 38.14 214.81 37.9333 214.69 37.76C214.57 37.5733 214.377 37.4067 214.11 37.26C213.857 37.1133 213.51 36.9667 213.07 36.82C212.643 36.6733 212.123 36.5133 211.51 36.34C210.763 36.14 210.103 35.9067 209.53 35.64C208.97 35.36 208.497 35.04 208.11 34.68C207.723 34.32 207.43 33.9067 207.23 33.44C207.043 32.9733 206.95 32.4533 206.95 31.88C206.95 30.5333 207.463 29.5 208.49 28.78C209.53 28.06 211.01 27.7 212.93 27.7C213.877 27.7 214.81 27.7867 215.73 27.96C216.663 28.12 217.463 28.3467 218.13 28.64L217.39 31.58C216.71 31.26 215.977 31.0133 215.19 30.84C214.403 30.6533 213.637 30.56 212.89 30.56C212.09 30.56 211.49 30.6733 211.09 30.9C210.703 31.1133 210.51 31.44 210.51 31.88C210.51 32.12 210.563 32.3333 210.67 32.52C210.777 32.7067 210.95 32.88 211.19 33.04C211.443 33.1867 211.77 33.3333 212.17 33.48C212.57 33.6267 213.063 33.78 213.65 33.94C214.463 34.18 215.163 34.44 215.75 34.72C216.35 34.9867 216.843 35.2933 217.23 35.64C217.63 35.9867 217.93 36.3867 218.13 36.84C218.33 37.2933 218.43 37.8067 218.43 38.38C218.43 39.7667 217.903 40.8333 216.85 41.58C215.797 42.3267 214.303 42.7 212.37 42.7ZM223.745 42.5V30.84H219.325V27.9H231.665V30.84H227.245V42.5H223.745Z" fill="white"/>
</svg>
