<svg width="30" height="26" viewBox="0 0 30 26" fill="none" xmlns="http://www.w3.org/2000/svg">
<path d="M26.9456 7.32023C26.9456 7.03882 26.9402 6.76059 26.9277 6.48426C28.1307 5.5879 29.1744 4.46586 29.9999 3.18189C28.8788 3.68632 27.6859 4.01269 26.4642 4.14921C27.7358 3.36673 28.7109 2.11531 29.1717 0.613532C27.9811 1.33558 26.6642 1.85178 25.264 2.12076C24.142 0.844142 22.541 0.0310261 20.771 0.000810694C17.3718 -0.0553867 14.6162 2.81719 14.6162 6.41605C14.6162 6.92759 14.6697 7.42369 14.7759 7.90274C9.65707 7.57333 5.12111 4.90888 2.08692 0.892191C1.55749 1.85453 1.25375 2.97922 1.25375 4.1845C1.25375 6.46415 2.34039 8.49027 3.99145 9.68587C2.98069 9.64015 2.03385 9.33403 1.20338 8.83211V8.91583C1.20338 12.1019 3.32565 14.7714 6.14166 15.3942C5.6254 15.5411 5.08089 15.6175 4.52088 15.6148C4.13178 15.6127 3.74395 15.5703 3.36364 15.488C4.14612 18.099 6.42026 20.0065 9.11261 20.0701C7.00547 21.8172 4.35112 22.8608 1.46928 22.8535C0.972395 22.8535 0.481382 22.8202 0 22.7598C2.72494 24.6289 5.95952 25.7176 9.43667 25.7176C20.7555 25.7203 26.9456 15.8682 26.9456 7.32023Z" fill="#5687FC"/>
</svg>
