<svg width="34" height="26" viewBox="0 0 34 26" fill="none" xmlns="http://www.w3.org/2000/svg">
<path d="M28.8267 2.19588C28.8173 2.1775 28.8016 2.1631 28.7825 2.15526C26.5781 1.14013 24.2518 0.416263 21.8619 0.00177553C21.8402 -0.00227601 21.8177 0.000646821 21.7978 0.0101283C21.7778 0.0196098 21.7613 0.0351673 21.7507 0.0545882C21.4339 0.631633 21.1464 1.22435 20.8891 1.83049C18.3129 1.43798 15.6924 1.43798 13.1162 1.83049C12.8572 1.22281 12.5651 0.629946 12.241 0.0545882C12.2299 0.0355893 12.2133 0.0203902 12.1935 0.0109703C12.1737 0.00155035 12.1514 -0.00165371 12.1298 0.00177553C9.73957 0.415393 7.41313 1.13931 5.20901 2.15531C5.19014 2.16334 5.17422 2.17705 5.16344 2.19455C0.755628 8.80123 -0.45184 15.2455 0.140503 21.6099C0.142169 21.6255 0.146944 21.6406 0.154543 21.6543C0.162142 21.668 0.172411 21.6801 0.184737 21.6897C2.75137 23.5971 5.62217 25.053 8.67465 25.9953C8.69614 26.0018 8.7191 26.0015 8.74043 25.9945C8.76175 25.9875 8.78043 25.9741 8.79394 25.9561C9.44954 25.0608 10.0305 24.1127 10.5308 23.1215C10.5377 23.1079 10.5416 23.093 10.5423 23.0778C10.543 23.0625 10.5405 23.0473 10.5349 23.0331C10.5294 23.019 10.5209 23.0061 10.51 22.9955C10.4991 22.9848 10.4861 22.9766 10.4719 22.9713C9.55579 22.6195 8.66894 22.1955 7.81961 21.7031C7.80419 21.694 7.79123 21.6812 7.78189 21.6659C7.77254 21.6506 7.7671 21.6332 7.76605 21.6152C7.76499 21.5973 7.76835 21.5794 7.77582 21.5631C7.7833 21.5467 7.79467 21.5325 7.80892 21.5217C7.98764 21.3877 8.16325 21.2496 8.33563 21.1075C8.35075 21.095 8.36904 21.0869 8.38845 21.0843C8.40786 21.0817 8.42762 21.0846 8.44549 21.0926C14.0098 23.6414 20.0339 23.6414 25.5323 21.0926C25.5502 21.084 25.5702 21.0808 25.5899 21.0832C25.6096 21.0856 25.6282 21.0935 25.6435 21.1061C25.8161 21.249 25.9922 21.3875 26.1716 21.5217C26.1859 21.5324 26.1974 21.5465 26.205 21.5628C26.2126 21.5791 26.2161 21.5969 26.2151 21.6149C26.2142 21.6328 26.2089 21.6502 26.1997 21.6656C26.1904 21.681 26.1776 21.6939 26.1622 21.7031C25.3148 22.1996 24.4272 22.6234 23.5087 22.97C23.4944 22.9754 23.4815 22.9839 23.4707 22.9947C23.4599 23.0055 23.4515 23.0185 23.446 23.0328C23.4406 23.0471 23.4382 23.0624 23.439 23.0777C23.4398 23.093 23.4439 23.1079 23.4509 23.1215C23.9596 24.1072 24.5396 25.0541 25.1864 25.9545C25.1995 25.973 25.2181 25.9869 25.2395 25.9942C25.2609 26.0015 25.2841 26.0018 25.3057 25.9952C28.3636 25.056 31.2394 23.6 33.8093 21.6897C33.8218 21.6806 33.8322 21.6688 33.8399 21.6553C33.8475 21.6418 33.8521 21.6267 33.8535 21.6113C34.5627 14.2533 32.6663 7.86187 28.8267 2.19588ZM11.3618 17.7346C9.6865 17.7346 8.30614 16.1916 8.30614 14.2967C8.30614 12.4017 9.65973 10.8585 11.3618 10.8585C13.0771 10.8585 14.4441 12.4151 14.4173 14.2965C14.4173 16.1916 13.0637 17.7346 11.3618 17.7346ZM22.6593 17.7346C20.9841 17.7346 19.6037 16.1916 19.6037 14.2967C19.6037 12.4017 20.9573 10.8585 22.6593 10.8585C24.3747 10.8585 25.7417 12.4151 25.7149 14.2965C25.7149 16.1916 24.3747 17.7346 22.6593 17.7346Z" fill="#5687FC"/>
</svg>
