<svg width="45" height="26" viewBox="0 0 45 26" fill="none" xmlns="http://www.w3.org/2000/svg">
<path d="M25.3811 13C25.3811 20.164 19.7218 26 12.6905 26C5.6593 26 0 20.164 0 13C0 5.83602 5.6593 0 12.6905 0C19.7218 0 25.3811 5.83602 25.3811 13ZM39.3064 13C39.3064 19.7446 36.4596 25.2312 32.9611 25.2312C29.4626 25.2312 26.6159 19.7446 26.6159 13C26.6159 6.25538 29.4626 0.768816 32.9611 0.768816C36.4596 0.768816 39.3064 6.25538 39.3064 13ZM45 13C45 19.0457 44.0053 23.9731 42.7706 23.9731C41.5358 23.9731 40.5412 19.0457 40.5412 13C40.5412 6.9543 41.5358 2.02688 42.7706 2.02688C44.0053 2.02688 45 6.9543 45 13Z" fill="#5687FC"/>
</svg>
