<svg width="27" height="21" viewBox="0 0 27 21" fill="none" xmlns="http://www.w3.org/2000/svg">
<path d="M22.5897 1.69969C22.5823 1.68546 22.57 1.67432 22.5551 1.66825C20.8276 0.882501 19.0046 0.322203 17.1318 0.00137432C17.1148 -0.00176171 17.0972 0.000500663 17.0815 0.00783969C17.0659 0.0151787 17.053 0.0272207 17.0446 0.0422532C16.7964 0.488906 16.5711 0.947693 16.3695 1.41686C14.3507 1.11305 12.2971 1.11305 10.2783 1.41686C10.0754 0.946501 9.84645 0.487601 9.59251 0.0422532C9.5838 0.0275474 9.57083 0.0157827 9.55528 0.00849139C9.53973 0.00120003 9.52232 -0.00128003 9.50533 0.00137432C7.63228 0.321529 5.8092 0.881869 4.08197 1.66829C4.06718 1.6745 4.05471 1.68511 4.04626 1.69866C0.592138 6.81247 -0.354078 11.8006 0.110103 16.7269C0.111409 16.7389 0.115151 16.7506 0.121106 16.7612C0.127061 16.7718 0.135107 16.7812 0.144767 16.7886C2.15607 18.265 4.40574 19.3919 6.79777 20.1213C6.81462 20.1263 6.83261 20.1261 6.84932 20.1207C6.86603 20.1153 6.88067 20.1049 6.89125 20.091C7.40501 19.398 7.86024 18.6641 8.2523 17.8969C8.25769 17.8864 8.26077 17.8748 8.26133 17.863C8.26189 17.8512 8.25993 17.8395 8.25556 17.8285C8.2512 17.8175 8.24454 17.8076 8.23602 17.7993C8.2275 17.7911 8.21731 17.7847 8.20613 17.7806C7.48827 17.5083 6.7933 17.1801 6.12774 16.799C6.11565 16.7919 6.10549 16.782 6.09817 16.7702C6.09085 16.7583 6.08659 16.7448 6.08576 16.731C6.08493 16.7171 6.08756 16.7032 6.09342 16.6906C6.09928 16.678 6.10819 16.6669 6.11936 16.6585C6.25941 16.5548 6.39703 16.4479 6.53211 16.3379C6.54395 16.3283 6.55829 16.3221 6.5735 16.32C6.58871 16.318 6.60419 16.3202 6.6182 16.3264C10.9786 18.2993 15.6993 18.2993 20.008 16.3264C20.0221 16.3198 20.0377 16.3173 20.0532 16.3191C20.0686 16.321 20.0832 16.3271 20.0952 16.3369C20.2305 16.4475 20.3684 16.5547 20.509 16.6585C20.5202 16.6669 20.5292 16.6778 20.5352 16.6904C20.5411 16.703 20.5439 16.7168 20.5431 16.7307C20.5424 16.7446 20.5383 16.7581 20.531 16.77C20.5238 16.7819 20.5137 16.7918 20.5017 16.799C19.8376 17.1833 19.142 17.5113 18.4223 17.7796C18.4111 17.7838 18.401 17.7903 18.3925 17.7987C18.384 17.8071 18.3774 17.8171 18.3732 17.8282C18.3689 17.8393 18.367 17.8511 18.3677 17.863C18.3683 17.8748 18.3715 17.8864 18.377 17.8969C18.7756 18.6598 19.2302 19.3928 19.737 20.0898C19.7473 20.1041 19.7618 20.1148 19.7786 20.1204C19.7954 20.1261 19.8135 20.1263 19.8305 20.1212C22.2268 19.3943 24.4804 18.2672 26.4942 16.7886C26.504 16.7815 26.5122 16.7724 26.5182 16.762C26.5241 16.7515 26.5278 16.7399 26.5289 16.7279C27.0846 11.0326 25.5985 6.08537 22.5897 1.69969ZM8.90349 13.7272C7.5907 13.7272 6.509 12.5329 6.509 11.0661C6.509 9.59933 7.56972 8.40491 8.90349 8.40491C10.2477 8.40491 11.3189 9.60971 11.2979 11.066C11.2979 12.5329 10.2372 13.7272 8.90349 13.7272ZM17.7566 13.7272C16.4439 13.7272 15.3622 12.5329 15.3622 11.0661C15.3622 9.59933 16.4229 8.40491 17.7566 8.40491C19.1009 8.40491 20.1721 9.60971 20.1511 11.066C20.1511 12.5329 19.1009 13.7272 17.7566 13.7272Z" fill="#3D89EE"/>
</svg>
