<svg width="249" height="53" viewBox="0 0 249 53" fill="none" xmlns="http://www.w3.org/2000/svg">
<path d="M238.349 4.47622C238.33 4.43875 238.297 4.4094 238.258 4.3934C233.72 2.32411 228.93 0.848537 224.01 0.00361935C223.965 -0.00463955 223.919 0.00131852 223.878 0.0206462C223.837 0.0399739 223.803 0.0716871 223.781 0.111276C223.129 1.28756 222.537 2.4958 222.007 3.73138C216.703 2.93126 211.308 2.93126 206.004 3.73138C205.471 2.49266 204.869 1.28412 204.202 0.111276C204.179 0.0725475 204.145 0.0415646 204.104 0.0223625C204.063 0.00316034 204.018 -0.00337103 203.973 0.00361935C199.052 0.846763 194.262 2.32244 189.724 4.39352C189.686 4.40989 189.653 4.43783 189.631 4.4735C180.556 17.941 178.07 31.0773 179.289 44.051C179.293 44.0828 179.303 44.1136 179.318 44.1415C179.334 44.1695 179.355 44.194 179.38 44.2137C184.665 48.1018 190.575 51.0696 196.86 52.9905C196.904 53.0037 196.951 53.0031 196.995 52.9888C197.039 52.9745 197.077 52.9472 197.105 52.9105C198.455 51.0854 199.651 49.1528 200.681 47.1323C200.695 47.1046 200.703 47.0742 200.705 47.0432C200.706 47.0121 200.701 46.9811 200.69 46.9522C200.678 46.9232 200.661 46.8971 200.638 46.8753C200.616 46.8536 200.589 46.8369 200.56 46.8262C198.674 46.1091 196.848 45.2446 195.099 44.2409C195.067 44.2223 195.041 44.1963 195.022 44.1651C195.002 44.1338 194.991 44.0984 194.989 44.0618C194.987 44.0253 194.994 43.9887 195.009 43.9555C195.024 43.9222 195.048 43.8932 195.077 43.8711C195.445 43.5979 195.807 43.3164 196.162 43.0267C196.193 43.0013 196.23 42.9849 196.27 42.9796C196.31 42.9742 196.351 42.9801 196.388 42.9964C207.844 48.192 220.246 48.192 231.566 42.9964C231.603 42.979 231.644 42.9724 231.685 42.9772C231.726 42.9821 231.764 42.9983 231.796 43.024C232.151 43.3152 232.513 43.5977 232.883 43.8711C232.912 43.893 232.936 43.9218 232.951 43.9549C232.967 43.9881 232.974 44.0245 232.972 44.0611C232.97 44.0976 232.959 44.1332 232.94 44.1645C232.921 44.1959 232.895 44.2221 232.863 44.2409C231.119 45.253 229.291 46.117 227.4 46.8235C227.371 46.8346 227.344 46.8517 227.322 46.8738C227.3 46.8958 227.282 46.9223 227.271 46.9514C227.26 46.9806 227.255 47.0118 227.257 47.043C227.258 47.0741 227.267 47.1046 227.281 47.1323C228.329 49.1416 229.523 51.0718 230.854 52.9074C230.881 52.945 230.92 52.9733 230.964 52.9881C231.008 53.003 231.055 53.0037 231.1 52.9902C237.396 51.0758 243.317 48.1077 248.607 44.2137C248.633 44.195 248.655 44.1711 248.67 44.1435C248.686 44.1159 248.696 44.0853 248.698 44.0537C250.158 29.0548 246.254 16.0261 238.349 4.47622ZM202.392 36.1514C198.943 36.1514 196.101 33.006 196.101 29.1432C196.101 25.2803 198.888 22.1347 202.392 22.1347C205.923 22.1347 208.738 25.3076 208.683 29.1429C208.683 33.006 205.896 36.1514 202.392 36.1514ZM225.651 36.1514C222.203 36.1514 219.361 33.006 219.361 29.1432C219.361 25.2803 222.147 22.1347 225.651 22.1347C229.183 22.1347 231.998 25.3076 231.942 29.1429C231.942 33.006 229.183 36.1514 225.651 36.1514Z" fill="#5687FC"/>
<path d="M54.7895 15.0859C54.7895 14.5059 54.7785 13.9325 54.7532 13.3631C57.1992 11.5158 59.3215 9.20345 61 6.55739C58.7205 7.59694 56.2949 8.26953 53.8108 8.55088C56.3962 6.93831 58.379 4.35932 59.316 1.2644C56.8952 2.75242 54.2174 3.81624 51.3703 4.37055C49.089 1.73965 45.8335 0.0639399 42.2346 0.00167072C35.3227 -0.114144 29.7197 5.8058 29.7197 13.2225C29.7197 14.2767 29.8285 15.2991 30.0444 16.2863C19.6361 15.6075 10.413 10.1164 4.24343 1.83867C3.16692 3.82191 2.54931 6.13972 2.54931 8.62362C2.54931 13.3216 4.75882 17.4972 8.11597 19.9611C6.06075 19.8669 4.13551 19.236 2.44687 18.2016V18.3742C2.44687 24.9402 6.76218 30.4416 12.4881 31.7252C11.4384 32.0278 10.3312 32.1853 9.19248 32.1796C8.40132 32.1755 7.61273 32.0879 6.83943 31.9184C8.43048 37.2992 13.0546 41.2303 18.529 41.3613C14.2445 44.9619 8.84731 47.1127 2.98755 47.0976C1.97721 47.0976 0.978814 47.0289 0 46.9044C5.54073 50.7565 12.1177 53 19.188 53C42.2031 53.0056 54.7895 32.702 54.7895 15.0859Z" fill="#5687FC"/>
<rect x="119" y="11" width="2" height="31" fill="#5687FC"/>
</svg>
