<svg width="23" height="20" viewBox="0 0 23 20" fill="none" xmlns="http://www.w3.org/2000/svg">
<path d="M20.6583 5.69278C20.6583 5.47394 20.6542 5.25756 20.6447 5.04266C21.5669 4.34559 22.3671 3.473 23 2.47449C22.1405 2.86677 21.226 3.12058 20.2893 3.22675C21.2642 2.61823 22.0118 1.64503 22.365 0.47713C21.4523 1.03865 20.4426 1.44009 19.3691 1.64926C18.509 0.656471 17.2815 0.0241283 15.9245 0.000630459C13.3184 -0.043073 11.2058 2.19087 11.2058 4.98962C11.2058 5.38744 11.2468 5.77324 11.3282 6.14579C7.40378 5.88961 3.9262 3.81753 1.59998 0.693837C1.19408 1.44223 0.961214 2.31687 0.961214 3.25419C0.961214 5.02703 1.79431 6.6027 3.06012 7.53249C2.2852 7.49693 1.55929 7.25887 0.922592 6.86854V6.93364C0.922592 9.41141 2.54967 11.4874 4.70862 11.9718C4.31283 12.086 3.89536 12.1454 3.46602 12.1432C3.16771 12.1417 2.87037 12.1087 2.5788 12.0447C3.1787 14.0752 4.92222 15.5586 6.98636 15.608C5.37088 16.9668 3.33587 17.7784 1.12645 17.7727C0.745506 17.7727 0.369061 17.7468 0 17.6998C2.08913 19.1534 4.56898 20 7.23481 20C15.9126 20.0021 20.6583 12.3404 20.6583 5.69278Z" fill="#3D89EE"/>
</svg>
