<svg width="68" height="68" viewBox="0 0 68 68" fill="none" xmlns="http://www.w3.org/2000/svg">
<circle cx="34" cy="34" r="34" fill="#CDF7FF"/>
<path d="M29.942 28.9634C29.606 28.628 29.438 28.2238 29.438 27.7508C29.438 27.2777 29.606 26.8735 29.942 26.5381C30.278 26.1908 30.68 26.0171 31.148 26.0171C31.616 26.0171 32.018 26.1908 32.354 26.5381L39.05 33.257C39.218 33.4007 39.335 33.5804 39.401 33.7959C39.467 34.0115 39.494 34.2391 39.482 34.4786C39.47 34.7181 39.419 34.9547 39.329 35.1882C39.239 35.4218 39.11 35.6224 38.942 35.79L32.354 42.4011C32.018 42.7485 31.616 42.9221 31.148 42.9221C30.68 42.9221 30.278 42.7485 29.942 42.4011C29.774 42.2335 29.648 42.0448 29.564 41.8352C29.48 41.6257 29.438 41.4101 29.438 41.1885C29.438 40.9669 29.48 40.7484 29.564 40.5328C29.648 40.3172 29.774 40.1256 29.942 39.9579L35.378 34.4606L29.942 28.9634Z" fill="#00B3D6"/>
</svg>
