<svg width="68" height="68" viewBox="0 0 68 68" fill="none" xmlns="http://www.w3.org/2000/svg">
<circle r="34" transform="matrix(-1 0 0 1 34 34)" fill="#CDF7FF"/>
<path d="M38.058 28.9634C38.394 28.628 38.562 28.2238 38.562 27.7508C38.562 27.2777 38.394 26.8735 38.058 26.5381C37.722 26.1908 37.32 26.0171 36.852 26.0171C36.384 26.0171 35.982 26.1908 35.646 26.5381L28.95 33.257C28.782 33.4007 28.665 33.5804 28.599 33.7959C28.533 34.0115 28.506 34.2391 28.518 34.4786C28.53 34.7181 28.581 34.9547 28.671 35.1882C28.761 35.4218 28.89 35.6224 29.058 35.79L35.646 42.4011C35.982 42.7485 36.384 42.9221 36.852 42.9221C37.32 42.9221 37.722 42.7485 38.058 42.4011C38.226 42.2335 38.352 42.0448 38.436 41.8352C38.52 41.6257 38.562 41.4101 38.562 41.1885C38.562 40.9669 38.52 40.7484 38.436 40.5328C38.352 40.3172 38.226 40.1256 38.058 39.9579L32.622 34.4606L38.058 28.9634Z" fill="#00B3D6"/>
</svg>
