<svg width="1022" height="83" viewBox="0 0 1022 83" fill="none" xmlns="http://www.w3.org/2000/svg">
<path d="M0.1 1.64C3.10667 1.34666 6.26 1.09 9.56 0.869996C12.86 0.649994 16.0133 0.466661 19.02 0.319996C22.1 0.173331 24.6667 0.099999 26.72 0.099999C39.1133 0.099999 48.39 2.63 54.55 7.69C60.7833 12.75 63.9 20.3033 63.9 30.35C63.9 40.1033 61.0033 47.5833 55.21 52.79C49.4167 57.9967 41.0567 60.6 30.13 60.6C27.6367 60.6 24.7033 60.49 21.33 60.27C18.03 59.9767 14.62 59.5733 11.1 59.06V41.46C13.8867 41.9 16.7833 42.2667 19.79 42.56C22.7967 42.8533 25.29 43 27.27 43C32.11 43 35.6667 41.9733 37.94 39.92C40.2133 37.8667 41.35 34.6767 41.35 30.35C41.35 26.0233 40.2133 22.8333 37.94 20.78C35.6667 18.7267 32.11 17.7 27.27 17.7C25.4367 17.7 23.2 17.8467 20.56 18.14C17.9933 18.36 15.2067 18.7267 12.2 19.24L22.1 8.9V81.5H0.1V1.64ZM126.4 82.6C114.886 82.6 106.306 79.8133 100.66 74.24C95.0864 68.5933 92.2998 60.0133 92.2998 48.5V1.2H114.3V44.1C114.3 49.3067 114.63 53.34 115.29 56.2C116.023 59.06 117.27 61.0767 119.03 62.25C120.79 63.35 123.246 63.9 126.4 63.9C129.626 63.9 132.083 63.35 133.77 62.25C135.53 61.0767 136.74 59.06 137.4 56.2C138.133 53.34 138.5 49.3067 138.5 44.1V1.2H160.5V48.5C160.5 60.0133 157.676 68.5933 152.03 74.24C146.456 79.8133 137.913 82.6 126.4 82.6ZM193.339 81.5V1.2H215.339L239.319 44.1H239.539V1.2H261.539V81.5H239.539L215.559 38.6H215.339V81.5H193.339ZM334.825 82.6C325.658 82.6 317.848 81.0233 311.395 77.87C305.015 74.6433 300.138 69.95 296.765 63.79C293.465 57.63 291.815 50.15 291.815 41.35C291.815 32.4767 293.465 24.9967 296.765 18.91C300.138 12.75 305.015 8.09333 311.395 4.94C317.848 1.71333 325.658 0.099999 334.825 0.099999C345.165 0.099999 354.295 2.15333 362.215 6.26L357.485 24.96C349.712 20.8533 342.452 18.8 335.705 18.8C331.232 18.8 327.418 19.68 324.265 21.44C321.185 23.2 318.802 25.7667 317.115 29.14C315.501 32.44 314.695 36.51 314.695 41.35C314.695 46.1167 315.501 50.1867 317.115 53.56C318.802 56.9333 321.185 59.5 324.265 61.26C327.418 63.02 331.232 63.9 335.705 63.9C342.452 63.9 349.712 61.8467 357.485 57.74L362.215 76.44C354.295 80.5467 345.165 82.6 334.825 82.6ZM438.231 81.5V1.2H460.231V81.5H438.231ZM393.131 81.5V1.2H415.131V81.5H393.131ZM404.131 49.6V30.9H449.231V49.6H404.131ZM584.337 82.6C574.95 82.6 566.883 80.9867 560.137 77.76C553.463 74.46 548.33 69.73 544.737 63.57C541.217 57.41 539.457 50.0033 539.457 41.35C539.457 32.6967 541.18 25.3267 544.627 19.24C548.147 13.08 553.17 8.35 559.697 5.04999C566.223 1.75 574.033 0.099999 583.127 0.099999C588.187 0.099999 592.88 0.613332 597.207 1.64C601.607 2.66667 605.567 4.20667 609.087 6.26L604.467 23.86C601.753 22.1733 598.417 20.8167 594.457 19.79C590.57 18.7633 586.793 18.25 583.127 18.25C578.653 18.25 574.877 19.13 571.797 20.89C568.79 22.65 566.48 25.2533 564.867 28.7C563.327 32.0733 562.557 36.29 562.557 41.35C562.557 46.4833 563.363 50.7733 564.977 54.22C566.59 57.5933 569.01 60.16 572.237 61.92C575.463 63.6067 579.497 64.45 584.337 64.45C586.463 64.45 588.297 64.2667 589.837 63.9C591.45 63.5333 593.1 62.91 594.787 62.03L592.257 67.09V50.59H574.657V32.44H614.257V76C610.223 78.1267 605.603 79.7767 600.397 80.95C595.19 82.05 589.837 82.6 584.337 82.6ZM640.311 81.5L665.061 1.2H694.761L719.511 81.5H695.311L680.021 19.9H679.801L664.511 81.5H640.311ZM658.461 66.65V48.5H701.361V66.65H658.461ZM746.648 81.5L756.328 1.2H782.728L792.738 50.7H792.958L802.968 1.2H829.368L839.048 81.5H817.048L813.858 30.9H813.638L803.848 72.7H781.848L772.058 30.9H771.838L768.648 81.5H746.648ZM868.709 81.5V1.2H927.009V18.8H890.709V31.78H924.809V48.72H890.709V63.9H927.009V81.5H868.709ZM986.724 82.6C980.71 82.6 974.954 81.9767 969.454 80.73C963.954 79.4833 959.407 77.76 955.814 75.56L960.434 56.86C963 58.2533 965.897 59.5367 969.124 60.71C972.424 61.8833 975.724 62.8 979.024 63.46C982.397 64.12 985.44 64.45 988.154 64.45C991.38 64.45 993.837 63.9367 995.524 62.91C997.21 61.8833 998.054 60.38 998.054 58.4C998.054 57.4467 997.797 56.6033 997.284 55.87C996.77 55.0633 995.89 54.33 994.644 53.67C993.397 52.9367 991.637 52.2033 989.364 51.47C987.164 50.6633 984.34 49.7833 980.894 48.83C976.567 47.6567 972.827 46.2633 969.674 44.65C966.52 43.0367 963.917 41.2033 961.864 39.15C959.81 37.0967 958.27 34.7867 957.244 32.22C956.29 29.6533 955.814 26.83 955.814 23.75C955.814 16.1233 958.747 10.2933 964.614 6.26C970.554 2.15333 979.024 0.099999 990.024 0.099999C995.377 0.099999 1000.66 0.576664 1005.86 1.52999C1011.14 2.41 1015.73 3.69333 1019.61 5.38L1014.99 24.08C1011.03 22.1733 1006.85 20.7433 1002.45 19.79C998.127 18.7633 993.874 18.25 989.694 18.25C986.027 18.25 983.314 18.69 981.554 19.57C979.794 20.3767 978.914 21.7333 978.914 23.64C978.914 24.6667 979.134 25.62 979.574 26.5C980.014 27.3067 980.82 28.0767 981.994 28.81C983.167 29.5433 984.78 30.3133 986.834 31.12C988.96 31.9267 991.674 32.8067 994.974 33.76C999.667 35.1533 1003.66 36.6567 1006.96 38.27C1010.26 39.8833 1012.94 41.68 1014.99 43.66C1017.12 45.5667 1018.66 47.7667 1019.61 50.26C1020.64 52.68 1021.15 55.3933 1021.15 58.4C1021.15 66.1733 1018.15 72.15 1012.13 76.33C1006.19 80.51 997.724 82.6 986.724 82.6Z" fill="white"/>
</svg>
