<svg width="70" height="53" viewBox="0 0 70 53" fill="none" xmlns="http://www.w3.org/2000/svg">
<path d="M59.3491 4.47622C59.3297 4.43875 59.2974 4.4094 59.2582 4.3934C54.7197 2.32411 49.9303 0.848537 45.0098 0.00361935C44.9651 -0.00463955 44.9189 0.00131852 44.8778 0.0206462C44.8367 0.0399739 44.8028 0.0716871 44.7809 0.111276C44.1287 1.28756 43.5367 2.49579 43.007 3.73138C37.703 2.93126 32.3079 2.93126 27.0039 3.73138C26.4708 2.49266 25.8692 1.28412 25.2021 0.111276C25.1792 0.0725475 25.1451 0.0415646 25.1043 0.0223625C25.0634 0.00316034 25.0177 -0.00337103 24.973 0.00361935C20.0521 0.846763 15.2623 2.32244 10.7244 4.39352C10.6856 4.40989 10.6528 4.43783 10.6306 4.4735C1.5557 17.941 -0.930258 31.0773 0.28927 44.051C0.292701 44.0828 0.302531 44.1136 0.318177 44.1415C0.333822 44.1695 0.354963 44.194 0.380342 44.2137C5.66458 48.1018 11.5751 51.0696 17.8596 52.9905C17.9038 53.0037 17.9511 53.0031 17.995 52.9888C18.0389 52.9745 18.0773 52.9472 18.1052 52.9105C19.4549 51.0854 20.6509 49.1528 21.681 47.1323C21.6952 47.1046 21.7032 47.0742 21.7047 47.0432C21.7062 47.0121 21.701 46.9811 21.6896 46.9522C21.6781 46.9232 21.6606 46.8971 21.6382 46.8753C21.6158 46.8536 21.5891 46.8369 21.5597 46.8262C19.6737 46.1091 17.8478 45.2446 16.0992 44.2409C16.0674 44.2223 16.0408 44.1963 16.0215 44.1651C16.0023 44.1338 15.9911 44.0984 15.9889 44.0618C15.9867 44.0253 15.9937 43.9887 16.009 43.9555C16.0244 43.9222 16.0478 43.8932 16.0772 43.8711C16.4451 43.5979 16.8067 43.3164 17.1616 43.0267C17.1927 43.0013 17.2304 42.9849 17.2703 42.9796C17.3103 42.9742 17.351 42.9801 17.3878 42.9964C28.8437 48.192 41.2462 48.192 52.5665 42.9964C52.6034 42.979 52.6445 42.9724 52.685 42.9772C52.7256 42.9821 52.7639 42.9983 52.7955 43.024C53.1508 43.3152 53.5133 43.5977 53.8827 43.8711C53.9122 43.893 53.9358 43.9218 53.9514 43.9549C53.967 43.9881 53.9742 44.0245 53.9723 44.0611C53.9704 44.0976 53.9595 44.1332 53.9405 44.1645C53.9215 44.1959 53.895 44.2221 53.8634 44.2409C52.1187 45.253 50.2912 46.117 48.4003 46.8235C48.3709 46.8346 48.3442 46.8517 48.322 46.8738C48.2997 46.8958 48.2824 46.9223 48.2712 46.9514C48.26 46.9806 48.255 47.0118 48.2568 47.043C48.2585 47.0741 48.2668 47.1046 48.2812 47.1323C49.3285 49.1416 50.5228 51.0718 51.8543 52.9074C51.8814 52.945 51.9196 52.9733 51.9637 52.9881C52.0078 53.003 52.0554 53.0037 52.0999 52.9902C58.3957 51.0758 64.3165 48.1077 69.6074 44.2137C69.6331 44.195 69.6546 44.1711 69.6703 44.1435C69.686 44.1159 69.6956 44.0853 69.6984 44.0537C71.1584 29.0548 67.2541 16.0261 59.3491 4.47622ZM23.3918 36.1514C19.9428 36.1514 17.1009 33.006 17.1009 29.1432C17.1009 25.2803 19.8877 22.1347 23.3918 22.1347C26.9234 22.1347 29.7378 25.3076 29.6827 29.1429C29.6827 33.006 26.8958 36.1514 23.3918 36.1514ZM46.6514 36.1514C43.2025 36.1514 40.3606 33.006 40.3606 29.1432C40.3606 25.2803 43.1474 22.1347 46.6514 22.1347C50.1832 22.1347 52.9975 25.3076 52.9424 29.1429C52.9424 33.006 50.1832 36.1514 46.6514 36.1514Z" fill="#5687FC"/>
</svg>
