<svg width="61" height="53" viewBox="0 0 61 53" fill="none" xmlns="http://www.w3.org/2000/svg">
<path d="M54.7895 15.0859C54.7895 14.5059 54.7785 13.9325 54.7532 13.3631C57.1992 11.5158 59.3215 9.20345 61 6.55739C58.7205 7.59694 56.2949 8.26953 53.8108 8.55088C56.3962 6.93831 58.379 4.35932 59.316 1.2644C56.8952 2.75242 54.2174 3.81624 51.3703 4.37055C49.089 1.73965 45.8335 0.0639399 42.2346 0.00167072C35.3227 -0.114144 29.7197 5.8058 29.7197 13.2225C29.7197 14.2767 29.8285 15.2991 30.0444 16.2863C19.6361 15.6075 10.413 10.1164 4.24343 1.83867C3.16692 3.82191 2.54931 6.13972 2.54931 8.62362C2.54931 13.3216 4.75882 17.4971 8.11597 19.9611C6.06075 19.8669 4.13551 19.236 2.44687 18.2016V18.3742C2.44687 24.9402 6.76218 30.4416 12.4881 31.7252C11.4384 32.0278 10.3312 32.1853 9.19248 32.1796C8.40132 32.1755 7.61273 32.0879 6.83943 31.9184C8.43048 37.2992 13.0546 41.2303 18.529 41.3613C14.2445 44.9619 8.84731 47.1127 2.98755 47.0976C1.97721 47.0976 0.978814 47.0289 0 46.9044C5.54073 50.7565 12.1177 53 19.188 53C42.2031 53.0056 54.7895 32.702 54.7895 15.0859Z" fill="#5687FC"/>
</svg>
